<?xml version="1.0" standalone="no"?><!DOCTYPE svg PUBLIC "-//W3C//DTD SVG 1.1//EN" "http://www.w3.org/Graphics/SVG/1.1/DTD/svg11.dtd"><svg t="1705328792971" class="icon" viewBox="0 0 1024 1024" version="1.1" xmlns="http://www.w3.org/2000/svg" p-id="1855" xmlns:xlink="http://www.w3.org/1999/xlink" width="200" height="200"><path d="M591.2 29.6c-19.2-18.4-49.6-18.4-68 0L512 40.8l-11.2-11.2c-19.2-18.4-49.6-18.4-68 0-19.2 18.4-19.2 48.8 0 68l79.2 79.2 79.2-79.2c19.2-18.4 19.2-48.8 0-68z" fill="#FA004B" p-id="1856"></path><path d="M384 608.8V256l80 64h96l80-64v352.8" fill="#FAEDD6" p-id="1857"></path><path d="M704.8 608h192.8v180c0 121.6-99.2 220.8-221.6 220.8H347.2c-122.4 0-221.6-98.4-221.6-220.8V608h192.8" fill="#36C9A3" p-id="1858"></path><path d="M126.4 608h771.2v64H126.4z" fill="#FFFFFF" p-id="1859"></path><path d="M736.8 1008H287.2c-35.2 0-64-28.8-64-64h578.4c0 36-28.8 64-64.8 64z" fill="#FA004B" p-id="1860"></path><path d="M415.2 600v56c0 26.4-21.6 48-48 48s-48-21.6-48-48v-56c0-13.6 11.2-24 24-24h48c13.6 0 24 11.2 24 24zM704.8 600v56c0 26.4-21.6 48-48 48s-48-21.6-48-48v-56c0-13.6 11.2-24 24-24h48c12.8 0 24 11.2 24 24z" fill="#FAEDD6" p-id="1861"></path><path d="M448.8 401.6h32v31.2h-32zM545.6 401.6h31.2v31.2h-31.2zM545.6 464.8h-64.8V496h14.4v16.8h31.2V496h19.2zM528.8 531.2H560v31.2h-31.2zM512 199.2L421.6 108.8c-12-12-18.4-28-18.4-44.8 0-16.8 6.4-32.8 18.4-44.8C433.6 6.4 449.6 0 466.4 0c16.8 0 32.8 6.4 45.6 18.4C524 6.4 540 0 557.6 0c16.8 0 32.8 6.4 45.6 18.4 12 12 18.4 28 18.4 44.8s-6.4 32.8-18.4 44.8L512 199.2z m-45.6-168c-8.8 0-16.8 3.2-23.2 9.6-12.8 12.8-12.8 32.8 0 45.6l68.8 68 68.8-68c12.8-12.8 12.8-32.8 0-45.6-6.4-6.4-14.4-9.6-23.2-9.6-8.8 0-16.8 3.2-23.2 9.6L512 63.2l-22.4-22.4c-6.4-6.4-14.4-9.6-23.2-9.6z" fill="#232323" p-id="1862"></path><path d="M993.6 269.6c-19.2-18.4-49.6-18.4-68 0l-11.2 11.2-11.2-11.2c-19.2-18.4-49.6-18.4-68 0-19.2 18.4-19.2 48.8 0 68l79.2 79.2 79.2-79.2c18.4-18.4 18.4-48.8 0-68z" fill="#FA004B" p-id="1863"></path><path d="M913.6 439.2l-90.4-90.4c-24.8-24.8-24.8-65.6 0-90.4 24.8-24.8 65.6-24.8 90.4 0 24.8-24.8 65.6-24.8 90.4 0 24.8 24.8 24.8 65.6 0 90.4l-90.4 90.4z m-45.6-168c-8 0-16.8 3.2-23.2 9.6-12.8 12.8-12.8 32.8 0 45.6l68.8 68 68.8-68c12.8-12.8 12.8-32.8 0-45.6-12.8-12.8-33.6-12.8-45.6 0l-22.4 22.4-22.4-22.4c-7.2-6.4-15.2-9.6-24-9.6z" fill="#232323" p-id="1864"></path><path d="M189.6 269.6c-19.2-18.4-49.6-18.4-68 0l-11.2 11.2-11.2-11.2c-19.2-18.4-49.6-18.4-68 0s-19.2 48.8 0 68l79.2 79.2 79.2-79.2c19.2-18.4 19.2-48.8 0-68z" fill="#FA004B" p-id="1865"></path><path d="M110.4 439.2L19.2 348.8c-24.8-24.8-24.8-65.6 0-90.4 24.8-24.8 65.6-24.8 90.4 0 24.8-24.8 65.6-24.8 90.4 0 24.8 24.8 24.8 65.6 0 90.4L110.4 439.2z m-45.6-168c-8 0-16.8 3.2-23.2 9.6-12.8 12.8-12.8 32.8 0 45.6l68.8 68 68.8-68c12.8-12.8 12.8-32.8 0-45.6-12.8-12.8-33.6-12.8-45.6 0l-22.4 22.4-23.2-22.4c-6.4-6.4-15.2-9.6-23.2-9.6zM336 928h354.4v32H336z" fill="#232323" p-id="1866"></path><path d="M720 592c-1.6-9.6-7.2-18.4-15.2-24v-24c0-17.6 14.4-32 32.8-32h32c35.2 0 64-28.8 64-64s-28.8-64-64-64h-32v32h32c17.6 0 32.8 14.4 32.8 32s-14.4 32-32.8 32h-32c-35.2 0-64 28.8-64 64v16h-18.4V222.4L554.4 305.6H469.6L367.2 223.2V560h-24c-19.2 0-36 13.6-39.2 32H110.4v195.2c0 130.4 106.4 236 236.8 236h328.8c130.4 0 236.8-105.6 236.8-236V592H720z m-96 8c0-4.8 4-8.8 8.8-8.8h48c4.8 0 8.8 4 8.8 8.8v56c0 17.6-14.4 32-32.8 32-17.6 0-32.8-14.4-32.8-32v-56zM458.4 336.8h108l57.6-48v272c-15.2 4-27.2 16.8-29.6 32.8H430.4c-2.4-16.8-15.2-29.6-32-32.8v-272l60 48z m134.4 321.6H431.2v-32.8h161.6v32.8zM335.2 600c0-4.8 4-8.8 8.8-8.8h48c4.8 0 8.8 4 8.8 8.8v56c0 17.6-14.4 32-32.8 32-17.6 0-32.8-14.4-32.8-32v-56z m490.4 328h-104v31.2h66.4c-32 20.8-70.4 32.8-112 32.8h-328c-40.8 0-79.2-12-112-32.8H304V928H198.4c-35.2-36.8-56-86.4-56-140.8V690.4h48.8v-31.2h-48.8V624H304v34.4H222.4v31.2h91.2c11.2 17.6 31.2 29.6 54.4 29.6 22.4 0 42.4-12 54.4-29.6h181.6c11.2 17.6 31.2 29.6 54.4 29.6 22.4 0 42.4-12 54.4-29.6h108v-31.2H720.8V624h161.6v35.2h-32v31.2h32v97.6c0 54.4-21.6 104-56.8 140z" fill="#232323" p-id="1867"></path></svg>