<?xml version="1.0" standalone="no"?><!DOCTYPE svg PUBLIC "-//W3C//DTD SVG 1.1//EN" "http://www.w3.org/Graphics/SVG/1.1/DTD/svg11.dtd"><svg t="1705329973949" class="icon" viewBox="0 0 1024 1024" version="1.1" xmlns="http://www.w3.org/2000/svg" p-id="6754" xmlns:xlink="http://www.w3.org/1999/xlink" width="200" height="200"><path d="M137.344 396.992a144 144 0 1 1 204.8-179.776c92.032-38.144 170.784-34.144 170.784-34.144s78.72-4 170.752 34.144a144.032 144.032 0 1 1 204.8 179.744c43.2 72.928 60.608 146.464 67.68 193.728a280.704 280.704 0 0 1 4.8 51.584 278.496 278.496 0 0 1-156.064 250.176s-100 58.624-292 58.624-292-58.624-292-58.624a278.56 278.56 0 0 1-156-250.208v-0.8a281.024 281.024 0 0 1 4.8-50.752c7.04-47.264 24.48-120.8 67.648-193.696z" fill="#9B9B9B" p-id="6755"></path><path d="M284.64 246.24A409.632 409.632 0 0 0 202.88 311.04c-10.432 10.72-20.064 21.696-28.992 32.896a80 80 0 1 1 110.752-97.728zM851.936 343.936c-8.896-11.168-18.56-22.144-28.992-32.864a409.6 409.6 0 0 0-81.792-64.864 80.032 80.032 0 1 1 110.784 97.728z" fill="#636363" p-id="6756"></path><path d="M928.704 636.032v-0.8a253.984 253.984 0 0 0-4.48-46.464 503.136 503.136 0 0 0-41.312-137.152 426.624 426.624 0 0 0-82.336-118.976c-123.968-125.504-287.84-117.28-287.84-117.28s-163.872-8.224-287.84 117.28c-45.856 46.4-75.296 98.56-94.176 146.432a507.744 507.744 0 0 0-29.504 109.696c-2.88 15.072-4.384 30.624-4.448 46.496v0.736c0 100.672 59.072 187.712 144.832 229.248 0 0 92.864 53.664 271.136 53.664 178.24 0 271.104-53.664 271.104-53.664 85.792-41.536 144.864-128.576 144.864-229.216z" fill="#F4F4F4" p-id="6757"></path><path d="M384.48 614.336c-19.648 12.8-31.584 35.2-31.584 59.36v23.68c0 92.032 71.648 166.624 160 166.624s160-74.592 160-166.624v-23.68c0-24.128-11.936-46.56-31.616-59.36a234.112 234.112 0 0 0-256.8 0z" fill="#FFFFFF" p-id="6758"></path><path d="M352.896 511.008a32 32 0 0 1 64 0v32a32 32 0 0 1-64 0v-32zM608.896 511.008a32 32 0 0 1 64 0v32a32 32 0 0 1-64 0v-32zM497.696 666.24l-32.416-26.688a22.848 22.848 0 0 1 14.496-40.448h66.368a22.816 22.816 0 0 1 14.496 40.448l-32.448 26.656a24 24 0 0 1-30.496 0zM512.896 704a15.968 15.968 0 0 1 15.584 12.448c2.72 10.784 6.272 23.84 13.664 34.336 6.816 9.664 16.864 17.216 34.752 17.216 20.928 0 32-17.088 32-32a16 16 0 1 1 32 0c0 27.776-20.96 64-64 64-29.6 0-48.896-13.76-60.896-30.784a85.92 85.92 0 0 1-3.104-4.736c-0.96 1.6-2.016 3.2-3.104 4.736-12 17.024-31.296 30.784-60.896 30.784-43.072 0-64-36.224-64-64a16 16 0 1 1 32 0c0 14.912 11.04 32 32 32 17.888 0 27.936-7.552 34.72-17.216 7.392-10.496 10.976-23.552 13.664-34.336a16.16 16.16 0 0 1 9.984-11.424 15.936 15.936 0 0 1 5.632-1.024z" fill="#402A32" p-id="6759"></path></svg>