<?xml version="1.0" encoding="UTF-8" standalone="no"?>
<svg
   xmlns:dc="http://purl.org/dc/elements/1.1/"
   xmlns:cc="http://creativecommons.org/ns#"
   xmlns:rdf="http://www.w3.org/1999/02/22-rdf-syntax-ns#"
   xmlns:svg="http://www.w3.org/2000/svg"
   xmlns="http://www.w3.org/2000/svg"
   xmlns:sodipodi="http://sodipodi.sourceforge.net/DTD/sodipodi-0.dtd"
   xmlns:inkscape="http://www.inkscape.org/namespaces/inkscape"
   version="1.1"
   viewBox="0.0 0.0 960.0 720.0"
   fill="none"
   stroke="none"
   stroke-linecap="square"
   stroke-miterlimit="10"
   id="svg4234"
   inkscape:version="0.91 r13725"
   sodipodi:docname="data_representation.svg">
  <metadata
     id="metadata4435">
    <rdf:RDF>
      <cc:Work
         rdf:about="">
        <dc:format>image/svg+xml</dc:format>
        <dc:type
           rdf:resource="http://purl.org/dc/dcmitype/StillImage" />
      </cc:Work>
    </rdf:RDF>
  </metadata>
  <defs
     id="defs4433" />
  <sodipodi:namedview
     pagecolor="#ffffff"
     bordercolor="#666666"
     borderopacity="1"
     objecttolerance="10"
     gridtolerance="10"
     guidetolerance="10"
     inkscape:pageopacity="0"
     inkscape:pageshadow="2"
     inkscape:window-width="1163"
     inkscape:window-height="725"
     id="namedview4431"
     showgrid="false"
     inkscape:zoom="0.77361111"
     inkscape:cx="480"
     inkscape:cy="360"
     inkscape:window-x="0"
     inkscape:window-y="0"
     inkscape:window-maximized="0"
     inkscape:current-layer="svg4234" />
  <clipPath
     id="p.0">
    <path
       d="m0 0l960.0 0l0 720.0l-960.0 0l0 -720.0z"
       clip-rule="nonzero"
       id="path4237" />
  </clipPath>
  <g
     clip-path="url(#p.0)"
     id="g4239"
     transform="translate(-1.2926391,1.2926391)">
    <path
       d="m 0,0 960,0 0,720 -960,0 z"
       id="path4241"
       inkscape:connector-curvature="0"
       style="fill:#000000;fill-opacity:0;fill-rule:nonzero" />
    <path
       d="m 39.11811,73.9462 0,206.98163"
       id="path4243"
       inkscape:connector-curvature="0"
       style="fill-rule:nonzero;stroke:#000000;stroke-width:1;stroke-linecap:butt" />
    <path
       d="m 101.23097,73.9462 0,206.98163"
       id="path4245"
       inkscape:connector-curvature="0"
       style="fill-rule:nonzero;stroke:#000000;stroke-width:1;stroke-linecap:butt" />
    <path
       d="m 163.34383,73.9462 0,206.98163"
       id="path4247"
       inkscape:connector-curvature="0"
       style="fill-rule:nonzero;stroke:#000000;stroke-width:1;stroke-linecap:butt" />
    <path
       d="m 225.4567,73.9462 0,206.98163"
       id="path4249"
       inkscape:connector-curvature="0"
       style="fill-rule:nonzero;stroke:#000000;stroke-width:1;stroke-linecap:butt" />
    <path
       d="m 287.56955,73.9462 0,206.98163"
       id="path4251"
       inkscape:connector-curvature="0"
       style="fill-rule:nonzero;stroke:#000000;stroke-width:1;stroke-linecap:butt" />
    <path
       d="m 38.619423,74.444885 249.448817,0"
       id="path4253"
       inkscape:connector-curvature="0"
       style="fill-rule:nonzero;stroke:#000000;stroke-width:1;stroke-linecap:butt" />
    <path
       d="m 38.619423,115.64173 249.448817,0"
       id="path4255"
       inkscape:connector-curvature="0"
       style="fill-rule:nonzero;stroke:#000000;stroke-width:1;stroke-linecap:butt" />
    <path
       d="m 38.619423,156.83858 249.448817,0"
       id="path4257"
       inkscape:connector-curvature="0"
       style="fill-rule:nonzero;stroke:#000000;stroke-width:1;stroke-linecap:butt" />
    <path
       d="m 38.619423,198.03543 249.448817,0"
       id="path4259"
       inkscape:connector-curvature="0"
       style="fill-rule:nonzero;stroke:#000000;stroke-width:1;stroke-linecap:butt" />
    <path
       d="m 38.619423,239.23228 249.448817,0"
       id="path4261"
       inkscape:connector-curvature="0"
       style="fill-rule:nonzero;stroke:#000000;stroke-width:1;stroke-linecap:butt" />
    <path
       d="m 38.619423,280.42914 249.448817,0"
       id="path4263"
       inkscape:connector-curvature="0"
       style="fill-rule:nonzero;stroke:#000000;stroke-width:1;stroke-linecap:butt" />
    <path
       d="m 48.89936,94.66176 q 0,-2.421875 0.5,-3.890625 0.5,-1.46875 1.46875,-2.265625 0.984375,-0.796875 2.46875,-0.796875 1.09375,0 1.921875,0.4375 0.828125,0.4375 1.359375,1.28125 0.546875,0.828125 0.84375,2.015625 0.3125,1.1875 0.3125,3.21875 0,2.390625 -0.5,3.859375 -0.484375,1.46875 -1.46875,2.281255 -0.96875,0.79687 -2.46875,0.79687 -1.96875,0 -3.078125,-1.40625 -1.359375,-1.703125 -1.359375,-5.53125 z m 1.71875,0 q 0,3.34375 0.78125,4.453125 0.796875,1.109375 1.9375,1.109375 1.15625,0 1.9375,-1.109375 0.78125,-1.125 0.78125,-4.453125 0,-3.359375 -0.78125,-4.46875 -0.78125,-1.109375 -1.953125,-1.109375 -1.15625,0 -1.828125,0.984375 -0.875,1.234375 -0.875,4.59375 z"
       id="path4265"
       inkscape:connector-curvature="0"
       style="fill:#000000;fill-rule:nonzero" />
    <path
       d="m 111.01222,97.80238 1.76563,-0.15625 q 0.1875,1.28125 0.89062,1.9375 0.71875,0.64063 1.71875,0.64063 1.20313,0 2.03125,-0.906255 0.84375,-0.90625 0.84375,-2.421875 0,-1.421875 -0.8125,-2.25 -0.79687,-0.828125 -2.09375,-0.828125 -0.79687,0 -1.45312,0.375 -0.64063,0.359375 -1.01563,0.953125 l -1.57812,-0.203125 1.32812,-7 6.76563,0 0,1.609375 -5.4375,0 -0.73438,3.640625 q 1.23438,-0.84375 2.57813,-0.84375 1.78125,0 3,1.234375 1.23437,1.234375 1.23437,3.171875 0,1.84375 -1.07812,3.1875 -1.3125,1.656255 -3.57813,1.656255 -1.85937,0 -3.03125,-1.03125 -1.17187,-1.04688 -1.34375,-2.76563 z"
       id="path4267"
       inkscape:connector-curvature="0"
       style="fill:#000000;fill-rule:nonzero" />
    <path
       d="m 172.9532,97.28676 0,-1.6875 5.125,0 0,1.6875 -5.125,0 z m 6.38455,0.515625 1.76563,-0.15625 q 0.1875,1.28125 0.89062,1.9375 0.71875,0.640625 1.71875,0.640625 1.20313,0 2.03125,-0.90625 0.84375,-0.90625 0.84375,-2.421875 0,-1.421875 -0.8125,-2.25 -0.79687,-0.828125 -2.09375,-0.828125 -0.79687,0 -1.45312,0.375 -0.64063,0.359375 -1.01563,0.953125 l -1.57812,-0.203125 1.32812,-7 6.76563,0 0,1.609375 -5.4375,0 -0.73438,3.640625 q 1.23438,-0.84375 2.57813,-0.84375 1.78125,0 3,1.234375 1.23437,1.234375 1.23437,3.171875 0,1.84375 -1.07812,3.1875 -1.3125,1.65625 -3.57813,1.65625 -1.85937,0 -3.03125,-1.03125 -1.17187,-1.046875 -1.34375,-2.765625 z"
       id="path4269"
       inkscape:connector-curvature="0"
       style="fill:#000000;fill-rule:nonzero" />
    <path
       d="m 243.90982,91.09926 -1.65625,0.125 q -0.21875,-0.984375 -0.64063,-1.421875 -0.67187,-0.71875 -1.65625,-0.71875 -0.8125,0 -1.40625,0.4375 -0.79687,0.578125 -1.25,1.6875 -0.45312,1.09375 -0.46875,3.140625 0.60938,-0.921875 1.46875,-1.359375 0.875,-0.453125 1.82813,-0.453125 1.67187,0 2.84375,1.234375 1.17187,1.234375 1.17187,3.171875 0,1.28125 -0.54687,2.390625 -0.54688,1.093755 -1.51563,1.687505 -0.96875,0.57812 -2.1875,0.57812 -2.09375,0 -3.40625,-1.53125 -1.3125,-1.546875 -1.3125,-5.0625 0,-3.953125 1.45313,-5.734375 1.26562,-1.5625 3.42187,-1.5625 1.60938,0 2.625,0.90625 1.03125,0.890625 1.23438,2.484375 z m -6.8125,5.859375 q 0,0.859375 0.35937,1.65625 0.375,0.78125 1.03125,1.203125 0.65625,0.40625 1.375,0.40625 1.0625,0 1.8125,-0.84375 0.76563,-0.859375 0.76563,-2.328125 0,-1.40625 -0.75,-2.21875 -0.75,-0.8125 -1.89063,-0.8125 -1.125,0 -1.92187,0.8125 -0.78125,0.8125 -0.78125,2.125 z"
       id="path4271"
       inkscape:connector-curvature="0"
       style="fill:#000000;fill-rule:nonzero" />
    <path
       d="m 55.196236,142.56174 -1.671875,0 0,-10.64063 q -0.59375,0.57813 -1.578125,1.15625 -0.984375,0.5625 -1.765625,0.85938 l 0,-1.625 q 1.40625,-0.65625 2.453125,-1.59375 1.046875,-0.9375 1.484375,-1.8125 l 1.078125,0 0,13.65625 z"
       id="path4273"
       inkscape:connector-curvature="0"
       style="fill:#000000;fill-rule:nonzero" />
    <path
       d="m 111.13722,130.74924 0,-1.60938 8.79688,0 0,1.29688 q -1.29688,1.375 -2.57813,3.67187 -1.26562,2.29688 -1.96875,4.71875 -0.5,1.70313 -0.64062,3.73438 l -1.71875,0 q 0.0312,-1.60938 0.625,-3.875 0.60937,-2.28125 1.73437,-4.39063 1.14063,-2.10937 2.40625,-3.54687 l -6.65625,0 z"
       id="path4275"
       inkscape:connector-curvature="0"
       style="fill:#000000;fill-rule:nonzero" />
    <path
       d="m 173.1407,138.96799 1.67187,-0.21875 q 0.28125,1.42187 0.96875,2.04687 0.70313,0.625 1.6875,0.625 1.1875,0 2,-0.8125 0.8125,-0.82812 0.8125,-2.03125 0,-1.14062 -0.76562,-1.89062 -0.75,-0.75 -1.90625,-0.75 -0.46875,0 -1.17188,0.1875 l 0.1875,-1.46875 q 0.15625,0.0156 0.26563,0.0156 1.0625,0 1.90625,-0.54687 0.85937,-0.5625 0.85937,-1.71875 0,-0.92188 -0.625,-1.51563 -0.60937,-0.60937 -1.59375,-0.60937 -0.96875,0 -1.625,0.60937 -0.64062,0.60938 -0.82812,1.84375 l -1.67188,-0.29687 q 0.29688,-1.6875 1.375,-2.60938 1.09375,-0.92187 2.71875,-0.92187 1.10938,0 2.04688,0.48437 0.9375,0.46875 1.42187,1.29688 0.5,0.82812 0.5,1.75 0,0.89062 -0.46875,1.60937 -0.46875,0.71875 -1.40625,1.15625 1.21875,0.26563 1.875,1.15625 0.67188,0.875 0.67188,2.1875 0,1.78125 -1.29688,3.01563 -1.29687,1.23437 -3.28125,1.23437 -1.79687,0 -2.98437,-1.0625 -1.17188,-1.0625 -1.34375,-2.76562 z"
       id="path4277"
       inkscape:connector-curvature="0"
       style="fill:#000000;fill-rule:nonzero" />
    <path
       d="m 235.25357,138.96799 1.67187,-0.21875 q 0.28125,1.42187 0.96875,2.04687 0.70313,0.625 1.6875,0.625 1.1875,0 2,-0.8125 0.8125,-0.82812 0.8125,-2.03125 0,-1.14062 -0.76562,-1.89062 -0.75,-0.75 -1.90625,-0.75 -0.46875,0 -1.17188,0.1875 l 0.1875,-1.46875 q 0.15625,0.0156 0.26563,0.0156 1.0625,0 1.90625,-0.54687 0.85937,-0.5625 0.85937,-1.71875 0,-0.92188 -0.625,-1.51563 -0.60937,-0.60937 -1.59375,-0.60937 -0.96875,0 -1.625,0.60937 -0.64062,0.60938 -0.82812,1.84375 l -1.67188,-0.29687 q 0.29688,-1.6875 1.375,-2.60938 1.09375,-0.92187 2.71875,-0.92187 1.10938,0 2.04688,0.48437 0.9375,0.46875 1.42187,1.29688 0.5,0.82812 0.5,1.75 0,0.89062 -0.46875,1.60937 -0.46875,0.71875 -1.40625,1.15625 1.21875,0.26563 1.875,1.15625 0.67188,0.875 0.67188,2.1875 0,1.78125 -1.29688,3.01563 -1.29687,1.23437 -3.28125,1.23437 -1.79687,0 -2.98437,-1.0625 -1.17188,-1.0625 -1.34375,-2.76562 z"
       id="path4279"
       inkscape:connector-curvature="0"
       style="fill:#000000;fill-rule:nonzero" />
    <path
       d="m 48.89936,177.05545 q 0,-2.42188 0.5,-3.89063 0.5,-1.46875 1.46875,-2.26562 0.984375,-0.79688 2.46875,-0.79688 1.09375,0 1.921875,0.4375 0.828125,0.4375 1.359375,1.28125 0.546875,0.82813 0.84375,2.01563 0.3125,1.1875 0.3125,3.21875 0,2.39062 -0.5,3.85937 -0.484375,1.46875 -1.46875,2.28125 -0.96875,0.79688 -2.46875,0.79688 -1.96875,0 -3.078125,-1.40625 -1.359375,-1.70313 -1.359375,-5.53125 z m 1.71875,0 q 0,3.34375 0.78125,4.45312 0.796875,1.10938 1.9375,1.10938 1.15625,0 1.9375,-1.10938 0.78125,-1.125 0.78125,-4.45312 0,-3.35938 -0.78125,-4.46875 -0.78125,-1.10938 -1.953125,-1.10938 -1.15625,0 -1.828125,0.98438 -0.875,1.23437 -0.875,4.59375 z"
       id="path4281"
       inkscape:connector-curvature="0"
       style="fill:#000000;fill-rule:nonzero" />
    <path
       d="m 119.79347,182.1492 0,1.60937 -8.98437,0 q -0.0156,-0.60937 0.1875,-1.15625 0.34375,-0.92187 1.09375,-1.8125 0.76562,-0.89062 2.1875,-2.0625 2.21875,-1.8125 3,-2.875 0.78125,-1.0625 0.78125,-2.01562 0,-0.98438 -0.71875,-1.67188 -0.70313,-0.6875 -1.84375,-0.6875 -1.20313,0 -1.9375,0.73438 -0.71875,0.71875 -0.71875,2 l -1.71875,-0.17188 q 0.17187,-1.92187 1.32812,-2.92187 1.15625,-1.01563 3.09375,-1.01563 1.95313,0 3.09375,1.09375 1.14063,1.07813 1.14063,2.6875 0,0.8125 -0.34375,1.60938 -0.32813,0.78125 -1.10938,1.65625 -0.76562,0.85937 -2.5625,2.39062 -1.5,1.26563 -1.9375,1.71875 -0.42187,0.4375 -0.70312,0.89063 l 6.67187,0 z"
       id="path4283"
       inkscape:connector-curvature="0"
       style="fill:#000000;fill-rule:nonzero" />
    <path
       d="m 173.12508,177.05545 q 0,-2.42188 0.5,-3.89063 0.5,-1.46875 1.46875,-2.26562 0.98437,-0.79688 2.46875,-0.79688 1.09375,0 1.92187,0.4375 0.82813,0.4375 1.35938,1.28125 0.54687,0.82813 0.84375,2.01563 0.3125,1.1875 0.3125,3.21875 0,2.39062 -0.5,3.85937 -0.48438,1.46875 -1.46875,2.28125 -0.96875,0.79688 -2.46875,0.79688 -1.96875,0 -3.07813,-1.40625 -1.35937,-1.70313 -1.35937,-5.53125 z m 1.71875,0 q 0,3.34375 0.78125,4.45312 0.79687,1.10938 1.9375,1.10938 1.15625,0 1.9375,-1.10938 0.78125,-1.125 0.78125,-4.45312 0,-3.35938 -0.78125,-4.46875 -0.78125,-1.10938 -1.95313,-1.10938 -1.15625,0 -1.82812,0.98438 -0.875,1.23437 -0.875,4.59375 z"
       id="path4285"
       inkscape:connector-curvature="0"
       style="fill:#000000;fill-rule:nonzero" />
    <path
       d="m 241.53482,183.75858 -1.67188,0 0,-10.64063 q -0.59375,0.57813 -1.57812,1.15625 -0.98438,0.5625 -1.76563,0.85938 l 0,-1.625 q 1.40625,-0.65625 2.45313,-1.59375 1.04687,-0.9375 1.48437,-1.8125 l 1.07813,0 0,13.65625 z"
       id="path4287"
       inkscape:connector-curvature="0"
       style="fill:#000000;fill-rule:nonzero" />
    <path
       d="m 55.196236,224.95543 -1.671875,0 0,-10.64063 q -0.59375,0.57813 -1.578125,1.15625 -0.984375,0.5625 -1.765625,0.85938 l 0,-1.625 q 1.40625,-0.65625 2.453125,-1.59375 1.046875,-0.9375 1.484375,-1.8125 l 1.078125,0 0,13.65625 z"
       id="path4289"
       inkscape:connector-curvature="0"
       style="fill:#000000;fill-rule:nonzero" />
    <path
       d="m 111.13722,213.14293 0,-1.60938 8.79688,0 0,1.29688 q -1.29688,1.375 -2.57813,3.67187 -1.26562,2.29688 -1.96875,4.71875 -0.5,1.70313 -0.64062,3.73438 l -1.71875,0 q 0.0312,-1.60938 0.625,-3.875 0.60937,-2.28125 1.73437,-4.39063 1.14063,-2.10937 2.40625,-3.54687 l -6.65625,0 z"
       id="path4291"
       inkscape:connector-curvature="0"
       style="fill:#000000;fill-rule:nonzero" />
    <path
       d="m 179.42195,224.95543 -1.67188,0 0,-10.64063 q -0.59375,0.57813 -1.57812,1.15625 -0.98438,0.5625 -1.76563,0.85938 l 0,-1.625 q 1.40625,-0.65625 2.45313,-1.59375 1.04687,-0.9375 1.48437,-1.8125 l 1.07813,0 0,13.65625 z m 4.07884,-6.70313 q 0,-2.42187 0.5,-3.89062 0.5,-1.46875 1.46875,-2.26563 0.98438,-0.79687 2.46875,-0.79687 1.09375,0 1.92188,0.4375 0.82812,0.4375 1.35937,1.28125 0.54688,0.82812 0.84375,2.01562 0.3125,1.1875 0.3125,3.21875 0,2.39063 -0.5,3.85938 -0.48437,1.46875 -1.46875,2.28125 -0.96875,0.79687 -2.46875,0.79687 -1.96875,0 -3.07812,-1.40625 -1.35938,-1.70312 -1.35938,-5.53125 z m 1.71875,0 q 0,3.34375 0.78125,4.45313 0.79688,1.10937 1.9375,1.10937 1.15625,0 1.9375,-1.10937 0.78125,-1.125 0.78125,-4.45313 0,-3.35937 -0.78125,-4.46875 -0.78125,-1.10937 -1.95312,-1.10937 -1.15625,0 -1.82813,0.98437 -0.875,1.23438 -0.875,4.59375 z m 8.65697,0 q 0,-2.42187 0.5,-3.89062 0.5,-1.46875 1.46875,-2.26563 0.98437,-0.79687 2.46875,-0.79687 1.09375,0 1.92187,0.4375 0.82813,0.4375 1.35938,1.28125 0.54687,0.82812 0.84375,2.01562 0.3125,1.1875 0.3125,3.21875 0,2.39063 -0.5,3.85938 -0.48438,1.46875 -1.46875,2.28125 -0.96875,0.79687 -2.46875,0.79687 -1.96875,0 -3.07813,-1.40625 -1.35937,-1.70312 -1.35937,-5.53125 z m 1.71875,0 q 0,3.34375 0.78125,4.45313 0.79687,1.10937 1.9375,1.10937 1.15625,0 1.9375,-1.10937 0.78125,-1.125 0.78125,-4.45313 0,-3.35937 -0.78125,-4.46875 -0.78125,-1.10937 -1.95313,-1.10937 -1.15625,0 -1.82812,0.98437 -0.875,1.23438 -0.875,4.59375 z"
       id="path4293"
       inkscape:connector-curvature="0"
       style="fill:#000000;fill-rule:nonzero" />
    <path
       d="m 241.53482,224.95543 -1.67188,0 0,-10.64063 q -0.59375,0.57813 -1.57812,1.15625 -0.98438,0.5625 -1.76563,0.85938 l 0,-1.625 q 1.40625,-0.65625 2.45313,-1.59375 1.04687,-0.9375 1.48437,-1.8125 l 1.07813,0 0,13.65625 z"
       id="path4295"
       inkscape:connector-curvature="0"
       style="fill:#000000;fill-rule:nonzero" />
    <path
       d="m 55.196236,266.15228 -1.671875,0 0,-10.64062 q -0.59375,0.57812 -1.578125,1.15625 -0.984375,0.5625 -1.765625,0.85937 l 0,-1.625 q 1.40625,-0.65625 2.453125,-1.59375 1.046875,-0.9375 1.484375,-1.8125 l 1.078125,0 0,13.65625 z"
       id="path4297"
       inkscape:connector-curvature="0"
       style="fill:#000000;fill-rule:nonzero" />
    <path
       d="m 117.3091,266.15228 -1.67187,0 0,-10.64062 q -0.59375,0.57812 -1.57813,1.15625 -0.98437,0.5625 -1.76562,0.85937 l 0,-1.625 q 1.40625,-0.65625 2.45312,-1.59375 1.04688,-0.9375 1.48438,-1.8125 l 1.07812,0 0,13.65625 z"
       id="path4299"
       inkscape:connector-curvature="0"
       style="fill:#000000;fill-rule:nonzero" />
    <path
       d="m 179.42195,266.15228 -1.67188,0 0,-10.64062 q -0.59375,0.57812 -1.57812,1.15625 -0.98438,0.5625 -1.76563,0.85937 l 0,-1.625 q 1.40625,-0.65625 2.45313,-1.59375 1.04687,-0.9375 1.48437,-1.8125 l 1.07813,0 0,13.65625 z m 12.86009,-1.60937 0,1.60937 -8.98437,0 q -0.0156,-0.60937 0.1875,-1.15625 0.34375,-0.92187 1.09375,-1.8125 0.76562,-0.89062 2.1875,-2.0625 2.21875,-1.8125 3,-2.875 0.78125,-1.0625 0.78125,-2.01562 0,-0.98438 -0.71875,-1.67188 -0.70313,-0.6875 -1.84375,-0.6875 -1.20313,0 -1.9375,0.73438 -0.71875,0.71875 -0.71875,2 l -1.71875,-0.17188 q 0.17187,-1.92187 1.32812,-2.92187 1.15625,-1.01563 3.09375,-1.01563 1.95313,0 3.09375,1.09375 1.14063,1.07813 1.14063,2.6875 0,0.8125 -0.34375,1.60938 -0.32813,0.78125 -1.10938,1.65625 -0.76562,0.85937 -2.5625,2.39062 -1.5,1.26563 -1.9375,1.71875 -0.42187,0.4375 -0.70312,0.89063 l 6.67187,0 z"
       id="path4301"
       inkscape:connector-curvature="0"
       style="fill:#000000;fill-rule:nonzero" />
    <path
       d="m 235.36295,254.33978 0,-1.60938 8.79687,0 0,1.29688 q -1.29687,1.375 -2.57812,3.67188 -1.26563,2.29687 -1.96875,4.71875 -0.5,1.70312 -0.64063,3.73437 l -1.71875,0 q 0.0312,-1.60937 0.625,-3.875 0.60938,-2.28125 1.73438,-4.39062 1.14062,-2.10938 2.40625,-3.54688 l -6.65625,0 z"
       id="path4303"
       inkscape:connector-curvature="0"
       style="fill:#000000;fill-rule:nonzero" />
    <path
       d="m 429.55905,73.948555 0,206.981625"
       id="path4305"
       inkscape:connector-curvature="0"
       style="fill-rule:nonzero;stroke:#000000;stroke-width:1;stroke-linecap:butt" />
    <path
       d="m 469.7533,73.948555 0,206.981625"
       id="path4307"
       inkscape:connector-curvature="0"
       style="fill-rule:nonzero;stroke:#000000;stroke-width:1;stroke-linecap:butt" />
    <path
       d="m 429.06036,74.44724 41.19162,0"
       id="path4309"
       inkscape:connector-curvature="0"
       style="fill-rule:nonzero;stroke:#000000;stroke-width:1;stroke-linecap:butt" />
    <path
       d="m 429.06036,115.64409 41.19162,0"
       id="path4311"
       inkscape:connector-curvature="0"
       style="fill-rule:nonzero;stroke:#000000;stroke-width:1;stroke-linecap:butt" />
    <path
       d="m 429.06036,156.84094 41.19162,0"
       id="path4313"
       inkscape:connector-curvature="0"
       style="fill-rule:nonzero;stroke:#000000;stroke-width:1;stroke-linecap:butt" />
    <path
       d="m 429.06036,198.0378 41.19162,0"
       id="path4315"
       inkscape:connector-curvature="0"
       style="fill-rule:nonzero;stroke:#000000;stroke-width:1;stroke-linecap:butt" />
    <path
       d="m 429.06036,239.23463 41.19162,0"
       id="path4317"
       inkscape:connector-curvature="0"
       style="fill-rule:nonzero;stroke:#000000;stroke-width:1;stroke-linecap:butt" />
    <path
       d="m 429.06036,280.4315 41.19162,0"
       id="path4319"
       inkscape:connector-curvature="0"
       style="fill-rule:nonzero;stroke:#000000;stroke-width:1;stroke-linecap:butt" />
    <path
       d="m 445.63718,101.36724 -1.67188,0 0,-10.640625 q -0.59375,0.578125 -1.57812,1.15625 -0.98438,0.5625 -1.76563,0.859375 l 0,-1.625 q 1.40625,-0.65625 2.45313,-1.59375 1.04687,-0.9375 1.48437,-1.8125 l 1.07813,0 0,13.65625 z"
       id="path4321"
       inkscape:connector-curvature="0"
       style="fill:#000000;fill-rule:nonzero" />
    <path
       d="m 439.3403,135.86096 q 0,-2.42188 0.5,-3.89063 0.5,-1.46875 1.46875,-2.26562 0.98438,-0.79688 2.46875,-0.79688 1.09375,0 1.92188,0.4375 0.82812,0.4375 1.35937,1.28125 0.54688,0.82813 0.84375,2.01563 0.3125,1.1875 0.3125,3.21875 0,2.39062 -0.5,3.85937 -0.48437,1.46875 -1.46875,2.28125 -0.96875,0.79688 -2.46875,0.79688 -1.96875,0 -3.07812,-1.40625 -1.35938,-1.70313 -1.35938,-5.53125 z m 1.71875,0 q 0,3.34375 0.78125,4.45312 0.79688,1.10938 1.9375,1.10938 1.15625,0 1.9375,-1.10938 0.78125,-1.125 0.78125,-4.45312 0,-3.35938 -0.78125,-4.46875 -0.78125,-1.10938 -1.95312,-1.10938 -1.15625,0 -1.82813,0.98438 -0.875,1.23437 -0.875,4.59375 z"
       id="path4323"
       inkscape:connector-curvature="0"
       style="fill:#000000;fill-rule:nonzero" />
    <path
       d="m 445.63718,183.76094 -1.67188,0 0,-10.64063 q -0.59375,0.57813 -1.57812,1.15625 -0.98438,0.5625 -1.76563,0.85938 l 0,-1.625 q 1.40625,-0.65625 2.45313,-1.59375 1.04687,-0.9375 1.48437,-1.8125 l 1.07813,0 0,13.65625 z"
       id="path4325"
       inkscape:connector-curvature="0"
       style="fill:#000000;fill-rule:nonzero" />
    <path
       d="m 445.63718,224.9578 -1.67188,0 0,-10.64063 q -0.59375,0.57813 -1.57812,1.15625 -0.98438,0.5625 -1.76563,0.85938 l 0,-1.625 q 1.40625,-0.65625 2.45313,-1.59375 1.04687,-0.9375 1.48437,-1.8125 l 1.07813,0 0,13.65625 z"
       id="path4327"
       inkscape:connector-curvature="0"
       style="fill:#000000;fill-rule:nonzero" />
    <path
       d="m 439.3403,259.4515 q 0,-2.42188 0.5,-3.89063 0.5,-1.46875 1.46875,-2.26562 0.98438,-0.79688 2.46875,-0.79688 1.09375,0 1.92188,0.4375 0.82812,0.4375 1.35937,1.28125 0.54688,0.82813 0.84375,2.01563 0.3125,1.1875 0.3125,3.21875 0,2.39062 -0.5,3.85937 -0.48437,1.46875 -1.46875,2.28125 -0.96875,0.79688 -2.46875,0.79688 -1.96875,0 -3.07812,-1.40625 -1.35938,-1.70313 -1.35938,-5.53125 z m 1.71875,0 q 0,3.34375 0.78125,4.45312 0.79688,1.10938 1.9375,1.10938 1.15625,0 1.9375,-1.10938 0.78125,-1.125 0.78125,-4.45312 0,-3.35938 -0.78125,-4.46875 -0.78125,-1.10938 -1.95312,-1.10938 -1.15625,0 -1.82813,0.98438 -0.875,1.23437 -0.875,4.59375 z"
       id="path4329"
       inkscape:connector-curvature="0"
       style="fill:#000000;fill-rule:nonzero" />
    <path
       d="m 303.7953,219.7095 c 0,1.53645 0.29694,2.93275 0.89081,4.18892 0.59387,1.25615 1.46487,2.21126 2.61304,2.86528 1.14419,0.65404 2.37548,0.98105 3.6939,0.98105 1.19962,0 2.28443,-0.26645 3.25443,-0.79936 0.96603,-0.53638 1.77569,-1.3496 2.42895,-2.43966 0.51075,-0.84089 1.05512,-2.30987 1.63315,-4.40693 0.5741,-2.09705 0.99771,-3.45183 1.27091,-4.06435 0.41571,-0.95509 0.93039,-1.64026 1.54406,-2.05553 0.60971,-0.41525 1.32434,-0.62287 2.14389,-0.62287 0.80768,0 1.55396,0.21627 2.2389,0.64883 0.681,0.42911 1.21746,1.08487 1.6094,1.96728 0.39197,0.88244 0.58795,1.89982 0.58795,3.05216 0,1.29768 -0.25735,2.46559 -0.77203,3.50374 -0.51868,1.03814 -1.19568,1.80465 -2.03107,2.2995 -0.83935,0.49139 -1.91226,0.80456 -3.21881,0.93953 l 0.28507,2.8497 c 1.746,-0.0415 3.31186,-0.45851 4.69757,-1.25096 1.38174,-0.79592 2.41705,-1.89116 3.10595,-3.28574 0.68891,-1.39804 1.03333,-3.13 1.03333,-5.19592 0,-1.62989 -0.34049,-3.0954 -1.02145,-4.39655 -0.68494,-1.30461 -1.64109,-2.30469 -2.86841,-3.00024 -1.2313,-0.69556 -2.54178,-1.04334 -3.93146,-1.04334 -1.40155,0 -2.63879,0.31664 -3.71173,0.94991 -1.07688,0.63327 -1.9657,1.61432 -2.66647,2.94314 -0.4751,0.91356 -1.02939,2.59882 -1.66288,5.05578 -0.63742,2.45347 -1.259,3.9709 -1.86474,4.55227 -0.60578,0.59174 -1.37781,0.88761 -2.31613,0.88761 -1.08085,0 -2.00333,-0.41698 -2.76746,-1.25097 -0.76807,-0.83743 -1.1521,-2.16972 -1.1521,-3.99687 0,-1.75445 0.42166,-3.07983 1.26495,-3.97609 0.8433,-0.89973 2.09043,-1.42746 3.7414,-1.58317 l -0.24942,-2.89644 c -1.5322,0.0519 -2.90406,0.42564 -4.11554,1.1212 -1.21152,0.69556 -2.12805,1.69046 -2.74964,2.98468 -0.62555,1.29076 -0.93832,2.78223 -0.93832,4.47441 z"
       id="path4331"
       inkscape:connector-curvature="0"
       style="fill:#000000;fill-rule:evenodd" />
    <path
       d="m 320.86325,196.11761 1.17584,0 c 1.41345,0 2.48242,0.15053 3.20694,0.4516 0.93833,0.3945 1.67868,1.01219 2.2211,1.85309 0.53842,0.84089 0.80765,1.80118 0.80765,2.88086 0,1.09005 -0.28503,1.91884 -0.85516,2.48636 -0.57013,0.56405 -1.28278,0.84608 -2.13794,0.84608 -0.55826,0 -1.06504,-0.12976 -1.52033,-0.3893 -0.45926,-0.25953 -0.80768,-0.62808 -1.04523,-1.10562 -0.23754,-0.47755 -0.45135,-1.29249 -0.64138,-2.44484 -0.33258,-2.03477 -0.73639,-3.56085 -1.21149,-4.57823 z m -9.85239,3.56604 c 0,1.42226 0.2237,2.67322 0.67109,3.7529 0.44342,1.07967 1.07885,1.905 1.90631,2.47598 0.82351,0.57097 1.90634,0.98105 3.2485,1.2302 l 0.42758,-2.74071 c -1.34213,-0.30106 -2.27652,-0.76477 -2.80307,-1.39111 -0.53055,-0.62981 -0.7958,-1.60395 -0.7958,-2.92238 0,-1.41188 0.36227,-2.47599 1.08679,-3.19231 0.53448,-0.52945 1.45498,-0.79417 2.76153,-0.79417 0.11878,0 0.39789,0.005 0.83734,0.0156 0.42762,1.06929 0.79581,2.73552 1.10462,4.99867 0.15442,1.11083 0.31476,1.94135 0.48105,2.49156 0.23755,0.74747 0.58792,1.42054 1.05115,2.0192 0.46322,0.5952 1.07888,1.07794 1.84695,1.44821 0.76413,0.36681 1.60941,0.55022 2.53586,0.55022 1.57968,0 2.87829,-0.48793 3.89581,-1.46379 1.01355,-0.97586 1.52033,-2.37216 1.52033,-4.18892 0,-1.10043 -0.20786,-2.12993 -0.6236,-3.08849 -0.41571,-0.96202 -1.12836,-1.96209 -2.13794,-3.00024 0.89081,-0.083 1.66879,-0.26991 2.33392,-0.56059 l 0,-2.92759 c -0.72451,0.35297 -1.48071,0.59002 -2.26858,0.71114 -0.79184,0.11766 -2.67838,0.17648 -5.65964,0.17648 l -4.27588,0 c -1.42532,0 -2.41113,0.0467 -2.95752,0.14016 -0.87893,0.1661 -1.60544,0.45678 -2.1795,0.87204 -0.57804,0.41525 -1.0571,1.0641 -1.4372,1.94653 -0.38006,0.88241 -0.5701,2.02957 -0.5701,3.44145 z"
       id="path4333"
       inkscape:connector-curvature="0"
       style="fill:#000000;fill-rule:evenodd" />
    <path
       d="m 311.01086,181.41747 c 0,1.10043 0.28308,2.08148 0.84924,2.94315 0.5622,0.86166 1.30652,1.55203 2.23297,2.0711 l -2.65463,0 0,2.50711 18.92084,0 0,-2.80299 -9.81674,0 c -1.72223,0 -3.04065,-0.15053 -3.9552,-0.45159 -0.91458,-0.30107 -1.60941,-0.78553 -2.08451,-1.45341 -0.47509,-0.67133 -0.71264,-1.40149 -0.71264,-2.19049 0,-1.03815 0.35632,-1.78561 1.06897,-2.24239 0.71264,-0.45678 1.78161,-0.68518 3.20694,-0.68518 l 12.29318,0 0,-2.80299 -10.99262,0 c -1.9479,0 -3.36331,-0.38413 -4.24621,-1.15235 -0.88684,-0.76823 -1.33026,-1.7337 -1.33026,-2.89643 0,-0.64365 0.17221,-1.20424 0.51666,-1.6818 0.34445,-0.47754 0.79974,-0.80629 1.3659,-0.98623 0.56223,-0.18341 1.48472,-0.27512 2.76746,-0.27512 l 11.91907,0 0,-2.78741 -12.98804,0 c -2.16171,0 -3.7612,0.4412 -4.79849,1.32363 -1.04126,0.88242 -1.56189,2.14377 -1.56189,3.78405 0,2.09706 1.10458,3.79962 3.31381,5.10768 -1.04523,0.32182 -1.85882,0.8755 -2.44083,1.66102 -0.582,0.78208 -0.87298,1.78562 -0.87298,3.01064 z"
       id="path4335"
       inkscape:connector-curvature="0"
       style="fill:#000000;fill-rule:evenodd" />
    <path
       d="m 313.52295,155.28731 c 0,-1.20425 0.59982,-2.23894 1.79944,-3.10405 1.19961,-0.86859 3.005,-1.30289 5.41614,-1.30289 2.5299,0 4.39862,0.44469 5.60617,1.33403 1.20358,0.88588 1.80539,1.95171 1.80539,3.1975 0,1.225 -0.582,2.26834 -1.74601,3.13 -1.164,0.86167 -2.96344,1.2925 -5.39831,1.2925 -2.43488,0 -4.28977,-0.45851 -5.56461,-1.37555 -1.27881,-0.92049 -1.91821,-1.97766 -1.91821,-3.17154 z m -2.51209,-0.26472 c 0,1.07966 0.24149,1.99842 0.72452,2.75628 0.47907,0.75784 1.19962,1.43782 2.16172,2.03995 l -2.45865,0 0,2.55385 26.17205,0 0,-2.803 -9.21099,0 c 0.6889,-0.47755 1.259,-1.08659 1.71035,-1.82714 0.45136,-0.74401 0.67704,-1.58318 0.67704,-2.51751 0,-1.27691 -0.41178,-2.49328 -1.23526,-3.64907 -0.82749,-1.15928 -2.01523,-2.04169 -3.56327,-2.64728 -1.552,-0.60906 -3.29599,-0.91358 -5.23202,-0.91358 -1.80539,0 -3.46427,0.27512 -4.97669,0.82534 -1.51635,0.55021 -2.69024,1.36515 -3.52166,2.44482 -0.83143,1.07968 -1.24714,2.32545 -1.24714,3.73734 z"
       id="path4337"
       inkscape:connector-curvature="0"
       style="fill:#000000;fill-rule:evenodd" />
    <path
       d="m 304.2407,144.69821 26.11859,0 0,-2.80299 -26.11859,0 z"
       id="path4339"
       inkscape:connector-curvature="0"
       style="fill:#000000;fill-rule:evenodd" />
    <path
       d="m 313.64764,130.72995 c 0,-1.42226 0.61765,-2.57979 1.85291,-3.4726 0.79577,-0.58136 1.98947,-0.93433 3.58105,-1.05891 l 0,9.23431 c -1.65097,-0.0934 -2.96936,-0.57789 -3.9552,-1.4534 -0.98584,-0.87896 -1.47876,-1.96209 -1.47876,-3.2494 z m -2.63678,0.0311 c 0,2.28392 0.87894,4.14222 2.63678,5.57485 1.75787,1.43265 4.22839,2.14897 7.41156,2.14897 3.07629,0 5.46762,-0.70767 7.17401,-2.12302 1.70245,-1.41879 2.55368,-3.33763 2.55368,-5.75651 0,-1.92058 -0.53448,-3.49856 -1.60348,-4.73395 -1.06897,-1.2354 -2.57148,-2.08149 -4.50751,-2.53827 l -0.40976,2.89642 c 1.35403,0.42565 2.33987,1.00182 2.95749,1.72852 0.61764,0.7267 0.92645,1.60394 0.92645,2.6317 0,1.38074 -0.55231,2.53308 -1.65692,3.45703 -1.10461,0.92395 -2.6962,1.43783 -4.77475,1.54166 l 0,-12.3332 c -0.38007,-0.0104 -0.66513,-0.0156 -0.85516,-0.0156 -3.12381,0 -5.54682,0.70076 -7.26905,2.10225 -1.72223,1.4015 -2.58334,3.20788 -2.58334,5.41912 z"
       id="path4341"
       inkscape:connector-curvature="0"
       style="fill:#000000;fill-rule:evenodd" />
    <path
       d="m 311.01086,114.37914 c 0,0.86166 0.12866,1.66969 0.38602,2.42407 0.25338,0.75093 0.56418,1.3444 0.93237,1.78042 0.4751,0.58137 1.07294,1.0416 1.79352,1.38074 0.71658,0.33566 1.49655,0.5035 2.33984,0.5035 0.92645,0 1.77371,-0.20417 2.54178,-0.6125 0.76413,-0.41181 1.36395,-1.01393 1.79947,-1.80638 0.43152,-0.79592 0.94424,-2.22164 1.53812,-4.27716 0.43948,-1.52608 0.80172,-2.48118 1.08679,-2.86529 0.41571,-0.55022 0.98584,-0.82533 1.71036,-0.82533 0.80767,0 1.51239,0.31145 2.11419,0.93434 0.59784,0.62288 0.89676,1.57798 0.89676,2.86528 0,1.27692 -0.3385,2.27181 -1.01553,2.98467 -0.677,0.7094 -1.65097,1.14196 -2.92188,1.29768 l 0.49887,2.77185 c 2.0073,-0.31144 3.52167,-1.02949 4.54316,-2.15415 1.02145,-1.12812 1.53219,-2.76666 1.53219,-4.91563 0,-1.29768 -0.25735,-2.4604 -0.77206,-3.48816 -0.51865,-1.02777 -1.24912,-1.8133 -2.19138,-2.3566 -0.94626,-0.54676 -1.95386,-0.82014 -3.02283,-0.82014 -1.09274,0 -2.00729,0.22321 -2.74371,0.66961 -0.73639,0.44641 -1.29663,1.06236 -1.68066,1.8479 -0.388,0.78207 -0.88486,2.16454 -1.49063,4.14739 -0.42759,1.37036 -0.70075,2.19569 -0.81952,2.47599 -0.22568,0.48793 -0.51074,0.84609 -0.8552,1.07448 -0.33258,0.22839 -0.70672,0.34259 -1.12243,0.34259 -0.65326,0 -1.22336,-0.27511 -1.71036,-0.82533 -0.48697,-0.55022 -0.73047,-1.46898 -0.73047,-2.75628 0,-1.09006 0.27319,-1.93268 0.81955,-2.52788 0.54639,-0.59867 1.30655,-0.96029 2.28049,-1.08487 l -0.42759,-2.7407 c -1.22338,0.17648 -2.19931,0.4983 -2.92779,0.96547 -0.73245,0.46717 -1.31247,1.19214 -1.74005,2.17492 -0.42761,0.97931 -0.64139,2.11782 -0.64139,3.4155 z"
       id="path4343"
       inkscape:connector-curvature="0"
       style="fill:#000000;fill-rule:evenodd" />
    <path
       d="m 303.7953,219.7095 c 0,1.53645 0.29694,2.93275 0.89081,4.18892 0.59387,1.25615 1.46487,2.21126 2.61304,2.86528 1.14419,0.65404 2.37548,0.98105 3.6939,0.98105 1.19962,0 2.28443,-0.26645 3.25443,-0.79936 0.96603,-0.53638 1.77569,-1.3496 2.42895,-2.43966 0.51075,-0.84089 1.05512,-2.30987 1.63315,-4.40693 0.5741,-2.09705 0.99771,-3.45183 1.27091,-4.06435 0.41571,-0.95509 0.93039,-1.64026 1.54406,-2.05553 0.60971,-0.41525 1.32434,-0.62287 2.14389,-0.62287 0.80768,0 1.55396,0.21627 2.2389,0.64883 0.681,0.42911 1.21746,1.08487 1.6094,1.96728 0.39197,0.88244 0.58795,1.89982 0.58795,3.05216 0,1.29768 -0.25735,2.46559 -0.77203,3.50374 -0.51868,1.03814 -1.19568,1.80465 -2.03107,2.2995 -0.83935,0.49139 -1.91226,0.80456 -3.21881,0.93953 l 0.28507,2.8497 c 1.746,-0.0415 3.31186,-0.45851 4.69757,-1.25096 1.38174,-0.79592 2.41705,-1.89116 3.10595,-3.28574 0.68891,-1.39804 1.03333,-3.13 1.03333,-5.19592 0,-1.62989 -0.34049,-3.0954 -1.02145,-4.39655 -0.68494,-1.30461 -1.64109,-2.30469 -2.86841,-3.00024 -1.2313,-0.69556 -2.54178,-1.04334 -3.93146,-1.04334 -1.40155,0 -2.63879,0.31664 -3.71173,0.94991 -1.07688,0.63327 -1.9657,1.61432 -2.66647,2.94314 -0.4751,0.91356 -1.02939,2.59882 -1.66288,5.05578 -0.63742,2.45347 -1.259,3.9709 -1.86474,4.55227 -0.60578,0.59174 -1.37781,0.88761 -2.31613,0.88761 -1.08085,0 -2.00333,-0.41698 -2.76746,-1.25097 -0.76807,-0.83743 -1.1521,-2.16972 -1.1521,-3.99687 0,-1.75445 0.42166,-3.07983 1.26495,-3.97609 0.8433,-0.89973 2.09043,-1.42746 3.7414,-1.58317 l -0.24942,-2.89644 c -1.5322,0.0519 -2.90406,0.42564 -4.11554,1.1212 -1.21152,0.69556 -2.12805,1.69046 -2.74964,2.98468 -0.62555,1.29076 -0.93832,2.78223 -0.93832,4.47441 z"
       id="path4345"
       inkscape:connector-curvature="0"
       style="fill-rule:evenodd;stroke:#000000;stroke-width:2;stroke-linecap:butt;stroke-linejoin:round" />
    <path
       d="m 320.86325,196.11761 1.17584,0 c 1.41345,0 2.48242,0.15053 3.20694,0.4516 0.93833,0.3945 1.67868,1.01219 2.2211,1.85309 0.53842,0.84089 0.80765,1.80118 0.80765,2.88086 0,1.09005 -0.28503,1.91884 -0.85516,2.48636 -0.57013,0.56405 -1.28278,0.84608 -2.13794,0.84608 -0.55826,0 -1.06504,-0.12976 -1.52033,-0.3893 -0.45926,-0.25953 -0.80768,-0.62808 -1.04523,-1.10562 -0.23754,-0.47755 -0.45135,-1.29249 -0.64138,-2.44484 -0.33258,-2.03477 -0.73639,-3.56085 -1.21149,-4.57823 z m -9.85239,3.56604 c 0,1.42226 0.2237,2.67322 0.67109,3.7529 0.44342,1.07967 1.07885,1.905 1.90631,2.47598 0.82351,0.57097 1.90634,0.98105 3.2485,1.2302 l 0.42758,-2.74071 c -1.34213,-0.30106 -2.27652,-0.76477 -2.80307,-1.39111 -0.53055,-0.62981 -0.7958,-1.60395 -0.7958,-2.92238 0,-1.41188 0.36227,-2.47599 1.08679,-3.19231 0.53448,-0.52945 1.45498,-0.79417 2.76153,-0.79417 0.11878,0 0.39789,0.005 0.83734,0.0156 0.42762,1.06929 0.79581,2.73552 1.10462,4.99867 0.15442,1.11083 0.31476,1.94135 0.48105,2.49156 0.23755,0.74747 0.58792,1.42054 1.05115,2.0192 0.46322,0.5952 1.07888,1.07794 1.84695,1.44821 0.76413,0.36681 1.60941,0.55022 2.53586,0.55022 1.57968,0 2.87829,-0.48793 3.89581,-1.46379 1.01355,-0.97586 1.52033,-2.37216 1.52033,-4.18892 0,-1.10043 -0.20786,-2.12993 -0.6236,-3.08849 -0.41571,-0.96202 -1.12836,-1.96209 -2.13794,-3.00024 0.89081,-0.083 1.66879,-0.26991 2.33392,-0.56059 l 0,-2.92759 c -0.72451,0.35297 -1.48071,0.59002 -2.26858,0.71114 -0.79184,0.11766 -2.67838,0.17648 -5.65964,0.17648 l -4.27588,0 c -1.42532,0 -2.41113,0.0467 -2.95752,0.14016 -0.87893,0.1661 -1.60544,0.45678 -2.1795,0.87204 -0.57804,0.41525 -1.0571,1.0641 -1.4372,1.94653 -0.38006,0.88241 -0.5701,2.02957 -0.5701,3.44145 z"
       id="path4347"
       inkscape:connector-curvature="0"
       style="fill-rule:evenodd;stroke:#000000;stroke-width:2;stroke-linecap:butt;stroke-linejoin:round" />
    <path
       d="m 311.01086,181.41747 c 0,1.10043 0.28308,2.08148 0.84924,2.94315 0.5622,0.86166 1.30652,1.55203 2.23297,2.0711 l -2.65463,0 0,2.50711 18.92084,0 0,-2.80299 -9.81674,0 c -1.72223,0 -3.04065,-0.15053 -3.9552,-0.45159 -0.91458,-0.30107 -1.60941,-0.78553 -2.08451,-1.45341 -0.47509,-0.67133 -0.71264,-1.40149 -0.71264,-2.19049 0,-1.03815 0.35632,-1.78561 1.06897,-2.24239 0.71264,-0.45678 1.78161,-0.68518 3.20694,-0.68518 l 12.29318,0 0,-2.80299 -10.99262,0 c -1.9479,0 -3.36331,-0.38413 -4.24621,-1.15235 -0.88684,-0.76823 -1.33026,-1.7337 -1.33026,-2.89643 0,-0.64365 0.17221,-1.20424 0.51666,-1.6818 0.34445,-0.47754 0.79974,-0.80629 1.3659,-0.98623 0.56223,-0.18341 1.48472,-0.27512 2.76746,-0.27512 l 11.91907,0 0,-2.78741 -12.98804,0 c -2.16171,0 -3.7612,0.4412 -4.79849,1.32363 -1.04126,0.88242 -1.56189,2.14377 -1.56189,3.78405 0,2.09706 1.10458,3.79962 3.31381,5.10768 -1.04523,0.32182 -1.85882,0.8755 -2.44083,1.66102 -0.582,0.78208 -0.87298,1.78562 -0.87298,3.01064 z"
       id="path4349"
       inkscape:connector-curvature="0"
       style="fill-rule:evenodd;stroke:#000000;stroke-width:2;stroke-linecap:butt;stroke-linejoin:round" />
    <path
       d="m 313.52295,155.28731 c 0,-1.20425 0.59982,-2.23894 1.79944,-3.10405 1.19961,-0.86859 3.005,-1.30289 5.41614,-1.30289 2.5299,0 4.39862,0.44469 5.60617,1.33403 1.20358,0.88588 1.80539,1.95171 1.80539,3.1975 0,1.225 -0.582,2.26834 -1.74601,3.13 -1.164,0.86167 -2.96344,1.2925 -5.39831,1.2925 -2.43488,0 -4.28977,-0.45851 -5.56461,-1.37555 -1.27881,-0.92049 -1.91821,-1.97766 -1.91821,-3.17154 z m -2.51209,-0.26472 c 0,1.07966 0.24149,1.99842 0.72452,2.75628 0.47907,0.75784 1.19962,1.43782 2.16172,2.03995 l -2.45865,0 0,2.55385 26.17205,0 0,-2.803 -9.21099,0 c 0.6889,-0.47755 1.259,-1.08659 1.71035,-1.82714 0.45136,-0.74401 0.67704,-1.58318 0.67704,-2.51751 0,-1.27691 -0.41178,-2.49328 -1.23526,-3.64907 -0.82749,-1.15928 -2.01523,-2.04169 -3.56327,-2.64728 -1.552,-0.60906 -3.29599,-0.91358 -5.23202,-0.91358 -1.80539,0 -3.46427,0.27512 -4.97669,0.82534 -1.51635,0.55021 -2.69024,1.36515 -3.52166,2.44482 -0.83143,1.07968 -1.24714,2.32545 -1.24714,3.73734 z"
       id="path4351"
       inkscape:connector-curvature="0"
       style="fill-rule:evenodd;stroke:#000000;stroke-width:2;stroke-linecap:butt;stroke-linejoin:round" />
    <path
       d="m 304.2407,144.69821 26.11859,0 0,-2.80299 -26.11859,0 z"
       id="path4353"
       inkscape:connector-curvature="0"
       style="fill-rule:evenodd;stroke:#000000;stroke-width:2;stroke-linecap:butt;stroke-linejoin:round" />
    <path
       d="m 313.64764,130.72995 c 0,-1.42226 0.61765,-2.57979 1.85291,-3.4726 0.79577,-0.58136 1.98947,-0.93433 3.58105,-1.05891 l 0,9.23431 c -1.65097,-0.0934 -2.96936,-0.57789 -3.9552,-1.4534 -0.98584,-0.87896 -1.47876,-1.96209 -1.47876,-3.2494 z m -2.63678,0.0311 c 0,2.28392 0.87894,4.14222 2.63678,5.57485 1.75787,1.43265 4.22839,2.14897 7.41156,2.14897 3.07629,0 5.46762,-0.70767 7.17401,-2.12302 1.70245,-1.41879 2.55368,-3.33763 2.55368,-5.75651 0,-1.92058 -0.53448,-3.49856 -1.60348,-4.73395 -1.06897,-1.2354 -2.57148,-2.08149 -4.50751,-2.53827 l -0.40976,2.89642 c 1.35403,0.42565 2.33987,1.00182 2.95749,1.72852 0.61764,0.7267 0.92645,1.60394 0.92645,2.6317 0,1.38074 -0.55231,2.53308 -1.65692,3.45703 -1.10461,0.92395 -2.6962,1.43783 -4.77475,1.54166 l 0,-12.3332 c -0.38007,-0.0104 -0.66513,-0.0156 -0.85516,-0.0156 -3.12381,0 -5.54682,0.70076 -7.26905,2.10225 -1.72223,1.4015 -2.58334,3.20788 -2.58334,5.41912 z"
       id="path4355"
       inkscape:connector-curvature="0"
       style="fill-rule:evenodd;stroke:#000000;stroke-width:2;stroke-linecap:butt;stroke-linejoin:round" />
    <path
       d="m 311.01086,114.37914 c 0,0.86166 0.12866,1.66969 0.38602,2.42407 0.25338,0.75093 0.56418,1.3444 0.93237,1.78042 0.4751,0.58137 1.07294,1.0416 1.79352,1.38074 0.71658,0.33566 1.49655,0.5035 2.33984,0.5035 0.92645,0 1.77371,-0.20417 2.54178,-0.6125 0.76413,-0.41181 1.36395,-1.01393 1.79947,-1.80638 0.43152,-0.79592 0.94424,-2.22164 1.53812,-4.27716 0.43948,-1.52608 0.80172,-2.48118 1.08679,-2.86529 0.41571,-0.55022 0.98584,-0.82533 1.71036,-0.82533 0.80767,0 1.51239,0.31145 2.11419,0.93434 0.59784,0.62288 0.89676,1.57798 0.89676,2.86528 0,1.27692 -0.3385,2.27181 -1.01553,2.98467 -0.677,0.7094 -1.65097,1.14196 -2.92188,1.29768 l 0.49887,2.77185 c 2.0073,-0.31144 3.52167,-1.02949 4.54316,-2.15415 1.02145,-1.12812 1.53219,-2.76666 1.53219,-4.91563 0,-1.29768 -0.25735,-2.4604 -0.77206,-3.48816 -0.51865,-1.02777 -1.24912,-1.8133 -2.19138,-2.3566 -0.94626,-0.54676 -1.95386,-0.82014 -3.02283,-0.82014 -1.09274,0 -2.00729,0.22321 -2.74371,0.66961 -0.73639,0.44641 -1.29663,1.06236 -1.68066,1.8479 -0.388,0.78207 -0.88486,2.16454 -1.49063,4.14739 -0.42759,1.37036 -0.70075,2.19569 -0.81952,2.47599 -0.22568,0.48793 -0.51074,0.84609 -0.8552,1.07448 -0.33258,0.22839 -0.70672,0.34259 -1.12243,0.34259 -0.65326,0 -1.22336,-0.27511 -1.71036,-0.82533 -0.48697,-0.55022 -0.73047,-1.46898 -0.73047,-2.75628 0,-1.09006 0.27319,-1.93268 0.81955,-2.52788 0.54639,-0.59867 1.30655,-0.96029 2.28049,-1.08487 l -0.42759,-2.7407 c -1.22338,0.17648 -2.19931,0.4983 -2.92779,0.96547 -0.73245,0.46717 -1.31247,1.19214 -1.74005,2.17492 -0.42761,0.97931 -0.64139,2.11782 -0.64139,3.4155 z"
       id="path4357"
       inkscape:connector-curvature="0"
       style="fill-rule:evenodd;stroke:#000000;stroke-width:2;stroke-linecap:butt;stroke-linejoin:round" />
    <path
       d="m 95.79002,295.1496 0,22.12488 3.345016,0 0,-10.05127 11.862744,0 0,-2.61093 -11.862744,0 0,-6.85175 13.707674,0 0,-2.61093 z"
       id="path4359"
       inkscape:connector-curvature="0"
       style="fill:#000000;fill-rule:evenodd" />
    <path
       d="m 124.34336,303.11816 c 1.5748,0 2.85648,0.52319 3.84504,1.56958 0.64372,0.6741 1.03455,1.68527 1.17248,3.03348 l -10.22471,0 c 0.10345,-1.3985 0.63988,-2.51532 1.60929,-3.3504 0.97324,-0.83509 2.17253,-1.25266 3.5979,-1.25266 z m -0.0345,-2.23361 c -2.52888,0 -4.58647,0.74454 -6.17276,2.23361 -1.5863,1.48911 -2.37945,3.58185 -2.37945,6.27829 0,2.60587 0.78357,4.63156 2.35071,6.07703 1.57096,1.44214 3.69561,2.1632 6.37392,2.1632 2.12656,0 3.87379,-0.45275 5.24168,-1.3583 1.36789,-0.90552 2.30473,-2.17826 2.8105,-3.81827 L 129.3264,312.113 c -0.4713,1.14701 -1.10925,1.98209 -1.9139,2.50528 -0.80464,0.5232 -1.77597,0.78476 -2.91396,0.78476 -1.52882,0 -2.80475,-0.46783 -3.8278,-1.40353 -1.02304,-0.9357 -1.59204,-2.28394 -1.707,-4.04465 l 13.65595,0 c 0.0115,-0.32199 0.0172,-0.56345 0.0172,-0.72443 0,-2.64611 -0.77591,-4.69863 -2.32771,-6.15753 -1.55182,-1.45889 -3.55193,-2.18835 -6.00034,-2.18835 z"
       id="path4361"
       inkscape:connector-curvature="0"
       style="fill:#000000;fill-rule:evenodd" />
    <path
       d="m 148.12056,309.23044 0,0.99606 c 0,1.1973 -0.16667,2.10282 -0.50003,2.71656 -0.4368,0.79486 -1.12074,1.42199 -2.05183,1.88147 -0.9311,0.45611 -1.99437,0.68417 -3.18984,0.68417 -1.20697,0 -2.12465,-0.24146 -2.75302,-0.7244 -0.62456,-0.48297 -0.93684,-1.08664 -0.93684,-1.81106 0,-0.47287 0.14369,-0.90216 0.43106,-1.28784 0.28737,-0.38904 0.69545,-0.68418 1.22421,-0.88541 0.52876,-0.2012 1.43111,-0.38232 2.70705,-0.5433 2.253,-0.28171 3.94274,-0.62381 5.06924,-1.02625 z m -3.94849,-8.34589 c -1.57481,0 -2.95994,0.18952 -4.15541,0.56849 -1.19548,0.37561 -2.10931,0.91391 -2.74153,1.61483 -0.63223,0.6976 -1.08627,1.61484 -1.36215,2.75177 l 3.03465,0.36222 c 0.33336,-1.13694 0.84679,-1.92844 1.54032,-2.37449 0.69735,-0.4494 1.77597,-0.6741 3.23582,-0.6741 1.56331,0 2.74153,0.30689 3.53468,0.92063 0.58623,0.45275 0.87935,1.23251 0.87935,2.33923 0,0.10062 -0.006,0.33707 -0.0172,0.70935 -1.18398,0.36218 -3.0289,0.6741 -5.53479,0.9357 -1.22995,0.1308 -2.14955,0.2666 -2.75877,0.40747 -0.82764,0.20123 -1.5729,0.49805 -2.23577,0.89044 -0.65904,0.3924 -1.19354,0.91388 -1.60353,1.56452 -0.40616,0.64727 -0.60924,1.36331 -0.60924,2.1481 0,1.33816 0.54027,2.4382 1.62079,3.30011 1.08052,0.85858 2.62659,1.28787 4.63819,1.28787 1.21846,0 2.35836,-0.17609 3.41973,-0.52823 1.06519,-0.35214 2.17254,-0.95584 3.32203,-1.81103 0.092,0.75457 0.29887,1.4136 0.62072,1.97705 l 3.24157,0 c -0.39083,-0.61374 -0.65329,-1.25434 -0.7874,-1.92173 -0.13028,-0.67074 -0.19542,-2.26882 -0.19542,-4.79422 l 0,-3.62207 c 0,-1.20736 -0.0517,-2.04245 -0.15518,-2.50528 -0.18392,-0.74453 -0.50577,-1.35995 -0.96557,-1.84625 -0.45979,-0.48965 -1.17823,-0.89544 -2.1553,-1.21744 -0.97707,-0.32196 -2.24725,-0.48294 -3.81055,-0.48294 z"
       id="path4363"
       inkscape:connector-curvature="0"
       style="fill:#000000;fill-rule:evenodd" />
    <path
       d="m 159.72467,295.64764 -3.08638,1.62994 0,3.96918 -2.276,0 0,2.11289 2.276,0 0,9.22122 c 0,1.62991 0.12643,2.69977 0.37933,3.20956 0.25289,0.50641 0.68969,0.91556 1.31041,1.22748 0.62073,0.31189 1.49434,0.46783 2.62084,0.46783 0.68969,0 1.47136,-0.0805 2.34497,-0.24145 l -0.44831,-2.39963 c -0.56324,0.0704 -1.0173,0.10562 -1.36215,0.10562 -0.45979,0 -0.81422,-0.0654 -1.06328,-0.19619 -0.24522,-0.13077 -0.42338,-0.30686 -0.53451,-0.5282 -0.10729,-0.22135 -0.16092,-0.71939 -0.16092,-1.49411 l 0,-9.37213 3.12086,0 0,-2.11289 -3.12086,0 0,-5.59912 z"
       id="path4365"
       inkscape:connector-curvature="0"
       style="fill:#000000;fill-rule:evenodd" />
    <path
       d="m 165.81122,301.24677 0,9.93054 c 0,1.15705 0.0632,2.0022 0.18967,2.53546 0.18391,0.79483 0.50193,1.46726 0.95407,2.01728 0.45596,0.54666 1.15141,1.00109 2.08633,1.36331 0.93874,0.36221 1.94838,0.54333 3.0289,0.54333 2.44841,0 4.3853,-0.90554 5.81067,-2.71658 l 0,2.35437 2.77602,0 0,-16.02771 -3.10363,0 0,8.58734 c 0,1.36835 -0.1705,2.41306 -0.51152,3.13413 -0.33718,0.71768 -0.91383,1.28616 -1.72998,1.70538 -0.81613,0.41586 -1.68974,0.62381 -2.62083,0.62381 -0.93109,0 -1.71274,-0.20291 -2.34496,-0.60874 -0.63223,-0.40914 -1.04603,-0.97091 -1.24145,-1.68527 -0.12645,-0.49298 -0.18967,-1.44882 -0.18967,-2.86746 l 0,-8.88919 z"
       id="path4367"
       inkscape:connector-curvature="0"
       style="fill:#000000;fill-rule:evenodd" />
    <path
       d="m 192.24374,300.88455 c -0.72418,0 -1.38896,0.18112 -1.99437,0.54333 -0.60156,0.36219 -1.25868,1.11176 -1.97137,2.24869 l 0,-2.42981 -2.79326,0 0,16.02771 3.10362,0 0,-8.39114 c 0,-1.147 0.17242,-2.20343 0.51727,-3.16934 0.22991,-0.63385 0.61498,-1.12854 1.15525,-1.48404 0.54025,-0.35886 1.14949,-0.53827 1.82768,-0.53827 0.75867,0 1.51733,0.1962 2.27598,0.58859 l 1.06903,-2.52038 c -1.08052,-0.58356 -2.14379,-0.87534 -3.18983,-0.87534 z"
       id="path4369"
       inkscape:connector-curvature="0"
       style="fill:#000000;fill-rule:evenodd" />
    <path
       d="m 204.83066,303.11816 c 1.5748,0 2.85649,0.52319 3.84505,1.56958 0.6437,0.6741 1.03454,1.68527 1.17248,3.03348 l -10.22471,0 c 0.10345,-1.3985 0.63987,-2.51532 1.60928,-3.3504 0.97324,-0.83509 2.17253,-1.25266 3.5979,-1.25266 z m -0.0345,-2.23361 c -2.52887,0 -4.58646,0.74454 -6.17276,2.23361 -1.58629,1.48911 -2.37945,3.58185 -2.37945,6.27829 0,2.60587 0.78357,4.63156 2.35071,6.07703 1.57097,1.44214 3.69561,2.1632 6.37392,2.1632 2.12656,0 3.87378,-0.45275 5.24168,-1.3583 1.36789,-0.90552 2.30472,-2.17826 2.8105,-3.81827 l -3.20707,-0.34711 c -0.4713,1.14701 -1.10927,1.98209 -1.91391,2.50528 -0.80464,0.5232 -1.77596,0.78476 -2.91396,0.78476 -1.52882,0 -2.80475,-0.46783 -3.8278,-1.40353 -1.02304,-0.9357 -1.59204,-2.28394 -1.70699,-4.04465 l 13.65595,0 c 0.0115,-0.32199 0.0172,-0.56345 0.0172,-0.72443 0,-2.64611 -0.77591,-4.69863 -2.32773,-6.15753 -1.5518,-1.45889 -3.55192,-2.18835 -6.00033,-2.18835 z"
       id="path4371"
       inkscape:connector-curvature="0"
       style="fill:#000000;fill-rule:evenodd" />
    <path
       d="m 222.93513,300.88455 c -0.95409,0 -1.84877,0.10901 -2.68407,0.327 -0.83145,0.21466 -1.48858,0.47793 -1.97137,0.78982 -0.64371,0.40244 -1.15332,0.90888 -1.52883,1.51926 -0.37165,0.60702 -0.55749,1.26773 -0.55749,1.98208 0,0.78479 0.22606,1.50251 0.67819,2.15311 0.45598,0.64728 1.12268,1.1554 2.00012,1.52429 0.88128,0.36557 2.4599,0.7999 4.7359,1.30295 1.68975,0.37228 2.74727,0.67914 3.1726,0.92062 0.60922,0.35215 0.91383,0.83509 0.91383,1.44883 0,0.68417 -0.34485,1.28115 -1.03453,1.79092 -0.6897,0.50641 -1.74724,0.75961 -3.17259,0.75961 -1.41388,0 -2.51547,-0.28674 -3.3048,-0.86023 -0.78547,-0.57348 -1.26443,-1.39852 -1.43686,-2.47509 l -3.06913,0.42257 c 0.34485,1.70038 1.1399,2.98319 2.38519,3.84848 1.24911,0.86527 3.06338,1.29792 5.44284,1.29792 1.43686,0 2.72429,-0.21802 3.86227,-0.654 1.13801,-0.43936 2.00779,-1.05813 2.60935,-1.85632 0.60541,-0.80154 0.9081,-1.65509 0.9081,-2.56061 0,-0.92563 -0.24714,-1.70038 -0.74141,-2.32415 -0.4943,-0.62381 -1.17632,-1.09836 -2.0461,-1.42368 -0.86595,-0.32867 -2.39668,-0.74957 -4.59221,-1.2627 -1.51733,-0.36221 -2.43118,-0.59362 -2.74155,-0.69424 -0.54025,-0.19116 -0.93682,-0.43265 -1.18971,-0.72443 -0.2529,-0.2817 -0.37933,-0.59863 -0.37933,-0.95077 0,-0.55338 0.30461,-1.03632 0.91385,-1.44885 0.60922,-0.41251 1.62652,-0.61878 3.05189,-0.61878 1.20696,0 2.13997,0.23142 2.799,0.69425 0.66289,0.46283 1.06328,1.10675 1.20122,1.93176 l 3.03466,-0.36218 c -0.19542,-1.03632 -0.55175,-1.86304 -1.06903,-2.48014 -0.51727,-0.62045 -1.31999,-1.11178 -2.40819,-1.47396 -1.08435,-0.36222 -2.34495,-0.54334 -3.78181,-0.54334 z"
       id="path4373"
       inkscape:connector-curvature="0"
       style="fill:#000000;fill-rule:evenodd" />
    <path
       d="m 95.79002,295.1496 0,22.12488 3.345016,0 0,-10.05127 11.862744,0 0,-2.61093 -11.862744,0 0,-6.85175 13.707674,0 0,-2.61093 z"
       id="path4375"
       inkscape:connector-curvature="0"
       style="fill-rule:evenodd;stroke:#000000;stroke-width:2;stroke-linecap:butt;stroke-linejoin:round" />
    <path
       d="m 124.34336,303.11816 c 1.5748,0 2.85648,0.52319 3.84504,1.56958 0.64372,0.6741 1.03455,1.68527 1.17248,3.03348 l -10.22471,0 c 0.10345,-1.3985 0.63988,-2.51532 1.60929,-3.3504 0.97324,-0.83509 2.17253,-1.25266 3.5979,-1.25266 z m -0.0345,-2.23361 c -2.52888,0 -4.58647,0.74454 -6.17276,2.23361 -1.5863,1.48911 -2.37945,3.58185 -2.37945,6.27829 0,2.60587 0.78357,4.63156 2.35071,6.07703 1.57096,1.44214 3.69561,2.1632 6.37392,2.1632 2.12656,0 3.87379,-0.45275 5.24168,-1.3583 1.36789,-0.90552 2.30473,-2.17826 2.8105,-3.81827 L 129.3264,312.113 c -0.4713,1.14701 -1.10925,1.98209 -1.9139,2.50528 -0.80464,0.5232 -1.77597,0.78476 -2.91396,0.78476 -1.52882,0 -2.80475,-0.46783 -3.8278,-1.40353 -1.02304,-0.9357 -1.59204,-2.28394 -1.707,-4.04465 l 13.65595,0 c 0.0115,-0.32199 0.0172,-0.56345 0.0172,-0.72443 0,-2.64611 -0.77591,-4.69863 -2.32771,-6.15753 -1.55182,-1.45889 -3.55193,-2.18835 -6.00034,-2.18835 z"
       id="path4377"
       inkscape:connector-curvature="0"
       style="fill-rule:evenodd;stroke:#000000;stroke-width:2;stroke-linecap:butt;stroke-linejoin:round" />
    <path
       d="m 148.12056,309.23044 0,0.99606 c 0,1.1973 -0.16667,2.10282 -0.50003,2.71656 -0.4368,0.79486 -1.12074,1.42199 -2.05183,1.88147 -0.9311,0.45611 -1.99437,0.68417 -3.18984,0.68417 -1.20697,0 -2.12465,-0.24146 -2.75302,-0.7244 -0.62456,-0.48297 -0.93684,-1.08664 -0.93684,-1.81106 0,-0.47287 0.14369,-0.90216 0.43106,-1.28784 0.28737,-0.38904 0.69545,-0.68418 1.22421,-0.88541 0.52876,-0.2012 1.43111,-0.38232 2.70705,-0.5433 2.253,-0.28171 3.94274,-0.62381 5.06924,-1.02625 z m -3.94849,-8.34589 c -1.57481,0 -2.95994,0.18952 -4.15541,0.56849 -1.19548,0.37561 -2.10931,0.91391 -2.74153,1.61483 -0.63223,0.6976 -1.08627,1.61484 -1.36215,2.75177 l 3.03465,0.36222 c 0.33336,-1.13694 0.84679,-1.92844 1.54032,-2.37449 0.69735,-0.4494 1.77597,-0.6741 3.23582,-0.6741 1.56331,0 2.74153,0.30689 3.53468,0.92063 0.58623,0.45275 0.87935,1.23251 0.87935,2.33923 0,0.10062 -0.006,0.33707 -0.0172,0.70935 -1.18398,0.36218 -3.0289,0.6741 -5.53479,0.9357 -1.22995,0.1308 -2.14955,0.2666 -2.75877,0.40747 -0.82764,0.20123 -1.5729,0.49805 -2.23577,0.89044 -0.65904,0.3924 -1.19354,0.91388 -1.60353,1.56452 -0.40616,0.64727 -0.60924,1.36331 -0.60924,2.1481 0,1.33816 0.54027,2.4382 1.62079,3.30011 1.08052,0.85858 2.62659,1.28787 4.63819,1.28787 1.21846,0 2.35836,-0.17609 3.41973,-0.52823 1.06519,-0.35214 2.17254,-0.95584 3.32203,-1.81103 0.092,0.75457 0.29887,1.4136 0.62072,1.97705 l 3.24157,0 c -0.39083,-0.61374 -0.65329,-1.25434 -0.7874,-1.92173 -0.13028,-0.67074 -0.19542,-2.26882 -0.19542,-4.79422 l 0,-3.62207 c 0,-1.20736 -0.0517,-2.04245 -0.15518,-2.50528 -0.18392,-0.74453 -0.50577,-1.35995 -0.96557,-1.84625 -0.45979,-0.48965 -1.17823,-0.89544 -2.1553,-1.21744 -0.97707,-0.32196 -2.24725,-0.48294 -3.81055,-0.48294 z"
       id="path4379"
       inkscape:connector-curvature="0"
       style="fill-rule:evenodd;stroke:#000000;stroke-width:2;stroke-linecap:butt;stroke-linejoin:round" />
    <path
       d="m 159.72467,295.64764 -3.08638,1.62994 0,3.96918 -2.276,0 0,2.11289 2.276,0 0,9.22122 c 0,1.62991 0.12643,2.69977 0.37933,3.20956 0.25289,0.50641 0.68969,0.91556 1.31041,1.22748 0.62073,0.31189 1.49434,0.46783 2.62084,0.46783 0.68969,0 1.47136,-0.0805 2.34497,-0.24145 l -0.44831,-2.39963 c -0.56324,0.0704 -1.0173,0.10562 -1.36215,0.10562 -0.45979,0 -0.81422,-0.0654 -1.06328,-0.19619 -0.24522,-0.13077 -0.42338,-0.30686 -0.53451,-0.5282 -0.10729,-0.22135 -0.16092,-0.71939 -0.16092,-1.49411 l 0,-9.37213 3.12086,0 0,-2.11289 -3.12086,0 0,-5.59912 z"
       id="path4381"
       inkscape:connector-curvature="0"
       style="fill-rule:evenodd;stroke:#000000;stroke-width:2;stroke-linecap:butt;stroke-linejoin:round" />
    <path
       d="m 165.81122,301.24677 0,9.93054 c 0,1.15705 0.0632,2.0022 0.18967,2.53546 0.18391,0.79483 0.50193,1.46726 0.95407,2.01728 0.45596,0.54666 1.15141,1.00109 2.08633,1.36331 0.93874,0.36221 1.94838,0.54333 3.0289,0.54333 2.44841,0 4.3853,-0.90554 5.81067,-2.71658 l 0,2.35437 2.77602,0 0,-16.02771 -3.10363,0 0,8.58734 c 0,1.36835 -0.1705,2.41306 -0.51152,3.13413 -0.33718,0.71768 -0.91383,1.28616 -1.72998,1.70538 -0.81613,0.41586 -1.68974,0.62381 -2.62083,0.62381 -0.93109,0 -1.71274,-0.20291 -2.34496,-0.60874 -0.63223,-0.40914 -1.04603,-0.97091 -1.24145,-1.68527 -0.12645,-0.49298 -0.18967,-1.44882 -0.18967,-2.86746 l 0,-8.88919 z"
       id="path4383"
       inkscape:connector-curvature="0"
       style="fill-rule:evenodd;stroke:#000000;stroke-width:2;stroke-linecap:butt;stroke-linejoin:round" />
    <path
       d="m 192.24374,300.88455 c -0.72418,0 -1.38896,0.18112 -1.99437,0.54333 -0.60156,0.36219 -1.25868,1.11176 -1.97137,2.24869 l 0,-2.42981 -2.79326,0 0,16.02771 3.10362,0 0,-8.39114 c 0,-1.147 0.17242,-2.20343 0.51727,-3.16934 0.22991,-0.63385 0.61498,-1.12854 1.15525,-1.48404 0.54025,-0.35886 1.14949,-0.53827 1.82768,-0.53827 0.75867,0 1.51733,0.1962 2.27598,0.58859 l 1.06903,-2.52038 c -1.08052,-0.58356 -2.14379,-0.87534 -3.18983,-0.87534 z"
       id="path4385"
       inkscape:connector-curvature="0"
       style="fill-rule:evenodd;stroke:#000000;stroke-width:2;stroke-linecap:butt;stroke-linejoin:round" />
    <path
       d="m 204.83066,303.11816 c 1.5748,0 2.85649,0.52319 3.84505,1.56958 0.6437,0.6741 1.03454,1.68527 1.17248,3.03348 l -10.22471,0 c 0.10345,-1.3985 0.63987,-2.51532 1.60928,-3.3504 0.97324,-0.83509 2.17253,-1.25266 3.5979,-1.25266 z m -0.0345,-2.23361 c -2.52887,0 -4.58646,0.74454 -6.17276,2.23361 -1.58629,1.48911 -2.37945,3.58185 -2.37945,6.27829 0,2.60587 0.78357,4.63156 2.35071,6.07703 1.57097,1.44214 3.69561,2.1632 6.37392,2.1632 2.12656,0 3.87378,-0.45275 5.24168,-1.3583 1.36789,-0.90552 2.30472,-2.17826 2.8105,-3.81827 l -3.20707,-0.34711 c -0.4713,1.14701 -1.10927,1.98209 -1.91391,2.50528 -0.80464,0.5232 -1.77596,0.78476 -2.91396,0.78476 -1.52882,0 -2.80475,-0.46783 -3.8278,-1.40353 -1.02304,-0.9357 -1.59204,-2.28394 -1.70699,-4.04465 l 13.65595,0 c 0.0115,-0.32199 0.0172,-0.56345 0.0172,-0.72443 0,-2.64611 -0.77591,-4.69863 -2.32773,-6.15753 -1.5518,-1.45889 -3.55192,-2.18835 -6.00033,-2.18835 z"
       id="path4387"
       inkscape:connector-curvature="0"
       style="fill-rule:evenodd;stroke:#000000;stroke-width:2;stroke-linecap:butt;stroke-linejoin:round" />
    <path
       d="m 222.93513,300.88455 c -0.95409,0 -1.84877,0.10901 -2.68407,0.327 -0.83145,0.21466 -1.48858,0.47793 -1.97137,0.78982 -0.64371,0.40244 -1.15332,0.90888 -1.52883,1.51926 -0.37165,0.60702 -0.55749,1.26773 -0.55749,1.98208 0,0.78479 0.22606,1.50251 0.67819,2.15311 0.45598,0.64728 1.12268,1.1554 2.00012,1.52429 0.88128,0.36557 2.4599,0.7999 4.7359,1.30295 1.68975,0.37228 2.74727,0.67914 3.1726,0.92062 0.60922,0.35215 0.91383,0.83509 0.91383,1.44883 0,0.68417 -0.34485,1.28115 -1.03453,1.79092 -0.6897,0.50641 -1.74724,0.75961 -3.17259,0.75961 -1.41388,0 -2.51547,-0.28674 -3.3048,-0.86023 -0.78547,-0.57348 -1.26443,-1.39852 -1.43686,-2.47509 l -3.06913,0.42257 c 0.34485,1.70038 1.1399,2.98319 2.38519,3.84848 1.24911,0.86527 3.06338,1.29792 5.44284,1.29792 1.43686,0 2.72429,-0.21802 3.86227,-0.654 1.13801,-0.43936 2.00779,-1.05813 2.60935,-1.85632 0.60541,-0.80154 0.9081,-1.65509 0.9081,-2.56061 0,-0.92563 -0.24714,-1.70038 -0.74141,-2.32415 -0.4943,-0.62381 -1.17632,-1.09836 -2.0461,-1.42368 -0.86595,-0.32867 -2.39668,-0.74957 -4.59221,-1.2627 -1.51733,-0.36221 -2.43118,-0.59362 -2.74155,-0.69424 -0.54025,-0.19116 -0.93682,-0.43265 -1.18971,-0.72443 -0.2529,-0.2817 -0.37933,-0.59863 -0.37933,-0.95077 0,-0.55338 0.30461,-1.03632 0.91385,-1.44885 0.60922,-0.41251 1.62652,-0.61878 3.05189,-0.61878 1.20696,0 2.13997,0.23142 2.799,0.69425 0.66289,0.46283 1.06328,1.10675 1.20122,1.93176 l 3.03466,-0.36218 c -0.19542,-1.03632 -0.55175,-1.86304 -1.06903,-2.48014 -0.51727,-0.62045 -1.31999,-1.11178 -2.40819,-1.47396 -1.08435,-0.36222 -2.34495,-0.54334 -3.78181,-0.54334 z"
       id="path4389"
       inkscape:connector-curvature="0"
       style="fill-rule:evenodd;stroke:#000000;stroke-width:2;stroke-linecap:butt;stroke-linejoin:round" />
    <path
       d="m 385.14697,17.257217 0,41.759193 22.96881,0 0,-4.927929 -18.10422,0 0,-36.831264 z"
       id="path4391"
       inkscape:connector-curvature="0"
       style="fill:#3d85c6;fill-rule:evenodd" />
    <path
       d="m 430.3323,43.83384 0,1.880016 c 0,2.259823 -0.24237,3.96893 -0.72717,5.127323 -0.63523,1.500218 -1.62989,2.68393 -2.98395,3.551148 -1.35404,0.860882 -2.90033,1.291324 -4.63889,1.291324 -1.75525,0 -3.08981,-0.455761 -4.00366,-1.367286 -0.90826,-0.911526 -1.36239,-2.05093 -1.36239,-3.418217 0,-0.892532 0.20895,-1.702778 0.62686,-2.430729 0.41794,-0.734283 1.01138,-1.291325 1.78033,-1.671127 0.76898,-0.379803 2.08124,-0.721623 3.9368,-1.025463 3.27649,-0.531723 5.73383,-1.177388 7.37207,-1.936989 z m -5.74219,-15.752275 c -2.29019,0 -4.30456,0.357649 -6.04309,1.072941 -1.73855,0.708963 -3.06753,1.724933 -3.98694,3.047907 -0.91943,1.316646 -1.57974,3.047909 -1.98095,5.19379 l 4.41323,0.683643 c 0.48478,-2.145881 1.23145,-3.639766 2.24003,-4.481662 1.01416,-0.848221 2.58273,-1.272335 4.70578,-1.272335 2.27346,0 3.98693,0.579197 5.14038,1.737594 0.85257,0.854553 1.27884,2.326283 1.27884,4.415192 0,0.189903 -0.008,0.636169 -0.0251,1.338802 -1.7218,0.683644 -4.40485,1.272335 -8.0491,1.766079 -1.7887,0.246868 -3.12604,0.503235 -4.01203,0.769097 -1.20358,0.379802 -2.28738,0.94001 -3.2514,1.680622 -0.95841,0.740616 -1.73575,1.724933 -2.33197,2.952957 -0.59067,1.221695 -0.88599,2.573158 -0.88599,4.054386 0,2.52568 0.78568,4.601925 2.35706,6.228744 1.57138,1.620488 3.81976,2.430733 6.74521,2.430733 1.77197,0 3.42972,-0.332329 4.97323,-0.996979 1.54908,-0.664653 3.15946,-1.804058 4.83112,-3.418216 0.13373,1.424255 0.43463,2.668106 0.90271,3.731552 l 4.71411,0 c -0.56836,-1.158398 -0.95007,-2.367432 -1.14508,-3.627106 -0.18945,-1.266006 -0.28418,-4.282265 -0.28418,-9.048775 l 0,-6.83643 c 0,-2.278812 -0.0752,-3.854988 -0.22568,-4.728531 -0.26748,-1.405265 -0.73553,-2.566825 -1.4042,-3.48468 -0.66867,-0.924185 -1.71347,-1.690119 -3.1344,-2.2978 -1.42093,-0.607683 -3.26813,-0.911525 -5.5416,-0.911525 z"
       id="path4393"
       inkscape:connector-curvature="0"
       style="fill:#3d85c6;fill-rule:evenodd" />
    <path
       d="m 453.27603,32.297363 c 1.95587,0 3.62195,0.94001 4.99829,2.820026 1.38193,1.880021 2.07288,4.794998 2.07288,8.744934 0,3.854988 -0.71881,6.757302 -2.15644,8.706951 -1.43765,1.943318 -3.14276,2.914978 -5.11532,2.914978 -2.42392,0 -4.34638,-1.319809 -5.76727,-3.95943 -0.8693,-1.614159 -1.30393,-4.234787 -1.30393,-7.861893 0,-3.684078 0.71884,-6.497776 2.15646,-8.441093 1.43766,-1.949646 3.14277,-2.924473 5.11533,-2.924473 z m -11.40918,-15.040146 0,41.759193 4.18756,0 0,-3.788521 c 1.78867,2.981442 4.2544,4.472164 7.39716,4.472164 3.15945,0 5.86755,-1.41476 8.12433,-4.244285 2.25674,-2.829522 3.38513,-6.83643 3.38513,-12.020721 0,-2.183861 -0.26746,-4.234787 -0.8024,-6.152787 -0.53494,-1.917999 -1.27606,-3.55431 -2.22333,-4.908935 -0.94171,-1.360956 -2.14532,-2.414906 -3.61081,-3.16185 -1.45993,-0.753273 -3.00903,-1.129912 -4.64725,-1.129912 -2.95886,0 -5.39117,1.357792 -7.29687,4.073374 l 0,-14.89772 z"
       id="path4395"
       inkscape:connector-curvature="0"
       style="fill:#3d85c6;fill-rule:evenodd" />
    <path
       d="m 481.43536,32.297363 c 2.29019,0 4.15411,0.987484 5.59177,2.962452 0.93612,1.272335 1.50448,3.180839 1.7051,5.72551 l -14.86953,0 c 0.15045,-2.639622 0.93054,-4.747521 2.34033,-6.323696 1.41534,-1.576176 3.15945,-2.364266 5.23233,-2.364266 z m -0.0501,-4.215799 c -3.67767,0 -6.66998,1.405267 -8.9769,4.215799 -2.30691,2.810532 -3.46036,6.760471 -3.46036,11.849812 0,4.91843 1.13953,8.741768 3.41858,11.470009 2.28461,2.721912 5.37442,4.08287 9.26944,4.08287 3.09259,0 5.63352,-0.854553 7.62281,-2.563663 1.98931,-1.709106 3.35171,-4.111351 4.08725,-7.206734 l -4.66398,-0.655159 c -0.68539,2.164868 -1.61315,3.741047 -2.78332,4.728531 -1.17017,0.987484 -2.58273,1.481224 -4.2377,1.481224 -2.22333,0 -4.07889,-0.883037 -5.56668,-2.649116 -1.48777,-1.766075 -2.31525,-4.310749 -2.48243,-7.63401 l 19.85947,0 c 0.0167,-0.607686 0.0251,-1.063446 0.0251,-1.367287 0,-4.994393 -1.12839,-8.86837 -3.38513,-11.621933 -2.25678,-2.753561 -5.16547,-4.130343 -8.72614,-4.130343 z"
       id="path4397"
       inkscape:connector-curvature="0"
       style="fill:#3d85c6;fill-rule:evenodd" />
    <path
       d="m 498.91272,17.257217 0,41.759193 4.51352,0 0,-41.759193 z"
       id="path4399"
       inkscape:connector-curvature="0"
       style="fill:#3d85c6;fill-rule:evenodd" />
    <path
       d="m 519.1734,28.081564 c -1.38751,0 -2.6886,0.205729 -3.90338,0.617178 -1.20917,0.405123 -2.1648,0.902029 -2.86688,1.490723 -0.93616,0.759603 -1.67728,1.715437 -2.22333,2.8675 -0.54053,1.145737 -0.81079,2.392754 -0.81079,3.741047 0,1.481228 0.32876,2.835854 0.9863,4.063877 0.66308,1.221695 1.63266,2.180695 2.90872,2.876999 1.28161,0.689972 3.57739,1.509712 6.88727,2.459217 2.45739,0.702633 3.9953,1.28183 4.61383,1.737591 0.88598,0.664654 1.32898,1.576179 1.32898,2.734573 0,1.291325 -0.50147,2.418068 -1.50452,3.380234 -1.00299,0.955833 -2.54089,1.43375 -4.61377,1.43375 -2.05621,0 -3.6582,-0.541214 -4.80609,-1.623649 -1.14234,-1.082436 -1.83887,-2.639622 -2.0896,-4.671562 l -4.46335,0.797584 c 0.5015,3.209324 1.65771,5.630558 3.46872,7.263706 1.81653,1.633148 4.45502,2.449722 7.91534,2.449722 2.0896,0 3.96192,-0.411453 5.61682,-1.234356 1.65497,-0.829235 2.91987,-1.997127 3.79474,-3.503669 0.88044,-1.512879 1.32062,-3.123871 1.32062,-4.832978 0,-1.747089 -0.35943,-3.209324 -1.07825,-4.386711 -0.71881,-1.177383 -1.71069,-2.073082 -2.97558,-2.687095 -1.25934,-0.620342 -3.48541,-1.414765 -6.67835,-2.383255 -2.2066,-0.683643 -3.53558,-1.120415 -3.98693,-1.310314 -0.78565,-0.360813 -1.36237,-0.816574 -1.73017,-1.367287 -0.3678,-0.531723 -0.55163,-1.12991 -0.55163,-1.794563 0,-1.044453 0.44299,-1.955979 1.32898,-2.734574 0.88598,-0.778591 2.36541,-1.167888 4.43829,-1.167888 1.75525,0 3.11206,0.436771 4.07049,1.310314 0.96399,0.873546 1.54633,2.088909 1.74689,3.646099 l 4.41327,-0.683643 c -0.28424,-1.955979 -0.80243,-3.516331 -1.55469,-4.681057 -0.75226,-1.171055 -1.91961,-2.098404 -3.50213,-2.782048 -1.57697,-0.683643 -3.41022,-1.025465 -5.49982,-1.025465 z"
       id="path4401"
       inkscape:connector-curvature="0"
       style="fill:#3d85c6;fill-rule:evenodd" />
    <path
       d="m 385.14697,17.257217 0,41.759193 22.96881,0 0,-4.927929 -18.10422,0 0,-36.831264 z"
       id="path4403"
       inkscape:connector-curvature="0"
       style="fill-rule:evenodd;stroke:#000000;stroke-width:2;stroke-linecap:butt;stroke-linejoin:round" />
    <path
       d="m 430.3323,43.83384 0,1.880016 c 0,2.259823 -0.24237,3.96893 -0.72717,5.127323 -0.63523,1.500218 -1.62989,2.68393 -2.98395,3.551148 -1.35404,0.860882 -2.90033,1.291324 -4.63889,1.291324 -1.75525,0 -3.08981,-0.455761 -4.00366,-1.367286 -0.90826,-0.911526 -1.36239,-2.05093 -1.36239,-3.418217 0,-0.892532 0.20895,-1.702778 0.62686,-2.430729 0.41794,-0.734283 1.01138,-1.291325 1.78033,-1.671127 0.76898,-0.379803 2.08124,-0.721623 3.9368,-1.025463 3.27649,-0.531723 5.73383,-1.177388 7.37207,-1.936989 z m -5.74219,-15.752275 c -2.29019,0 -4.30456,0.357649 -6.04309,1.072941 -1.73855,0.708963 -3.06753,1.724933 -3.98694,3.047907 -0.91943,1.316646 -1.57974,3.047909 -1.98095,5.19379 l 4.41323,0.683643 c 0.48478,-2.145881 1.23145,-3.639766 2.24003,-4.481662 1.01416,-0.848221 2.58273,-1.272335 4.70578,-1.272335 2.27346,0 3.98693,0.579197 5.14038,1.737594 0.85257,0.854553 1.27884,2.326283 1.27884,4.415192 0,0.189903 -0.008,0.636169 -0.0251,1.338802 -1.7218,0.683644 -4.40485,1.272335 -8.0491,1.766079 -1.7887,0.246868 -3.12604,0.503235 -4.01203,0.769097 -1.20358,0.379802 -2.28738,0.94001 -3.2514,1.680622 -0.95841,0.740616 -1.73575,1.724933 -2.33197,2.952957 -0.59067,1.221695 -0.88599,2.573158 -0.88599,4.054386 0,2.52568 0.78568,4.601925 2.35706,6.228744 1.57138,1.620488 3.81976,2.430733 6.74521,2.430733 1.77197,0 3.42972,-0.332329 4.97323,-0.996979 1.54908,-0.664653 3.15946,-1.804058 4.83112,-3.418216 0.13373,1.424255 0.43463,2.668106 0.90271,3.731552 l 4.71411,0 c -0.56836,-1.158398 -0.95007,-2.367432 -1.14508,-3.627106 -0.18945,-1.266006 -0.28418,-4.282265 -0.28418,-9.048775 l 0,-6.83643 c 0,-2.278812 -0.0752,-3.854988 -0.22568,-4.728531 -0.26748,-1.405265 -0.73553,-2.566825 -1.4042,-3.48468 -0.66867,-0.924185 -1.71347,-1.690119 -3.1344,-2.2978 -1.42093,-0.607683 -3.26813,-0.911525 -5.5416,-0.911525 z"
       id="path4405"
       inkscape:connector-curvature="0"
       style="fill-rule:evenodd;stroke:#000000;stroke-width:2;stroke-linecap:butt;stroke-linejoin:round" />
    <path
       d="m 453.27603,32.297363 c 1.95587,0 3.62195,0.94001 4.99829,2.820026 1.38193,1.880021 2.07288,4.794998 2.07288,8.744934 0,3.854988 -0.71881,6.757302 -2.15644,8.706951 -1.43765,1.943318 -3.14276,2.914978 -5.11532,2.914978 -2.42392,0 -4.34638,-1.319809 -5.76727,-3.95943 -0.8693,-1.614159 -1.30393,-4.234787 -1.30393,-7.861893 0,-3.684078 0.71884,-6.497776 2.15646,-8.441093 1.43766,-1.949646 3.14277,-2.924473 5.11533,-2.924473 z m -11.40918,-15.040146 0,41.759193 4.18756,0 0,-3.788521 c 1.78867,2.981442 4.2544,4.472164 7.39716,4.472164 3.15945,0 5.86755,-1.41476 8.12433,-4.244285 2.25674,-2.829522 3.38513,-6.83643 3.38513,-12.020721 0,-2.183861 -0.26746,-4.234787 -0.8024,-6.152787 -0.53494,-1.917999 -1.27606,-3.55431 -2.22333,-4.908935 -0.94171,-1.360956 -2.14532,-2.414906 -3.61081,-3.16185 -1.45993,-0.753273 -3.00903,-1.129912 -4.64725,-1.129912 -2.95886,0 -5.39117,1.357792 -7.29687,4.073374 l 0,-14.89772 z"
       id="path4407"
       inkscape:connector-curvature="0"
       style="fill-rule:evenodd;stroke:#000000;stroke-width:2;stroke-linecap:butt;stroke-linejoin:round" />
    <path
       d="m 481.43536,32.297363 c 2.29019,0 4.15411,0.987484 5.59177,2.962452 0.93612,1.272335 1.50448,3.180839 1.7051,5.72551 l -14.86953,0 c 0.15045,-2.639622 0.93054,-4.747521 2.34033,-6.323696 1.41534,-1.576176 3.15945,-2.364266 5.23233,-2.364266 z m -0.0501,-4.215799 c -3.67767,0 -6.66998,1.405267 -8.9769,4.215799 -2.30691,2.810532 -3.46036,6.760471 -3.46036,11.849812 0,4.91843 1.13953,8.741768 3.41858,11.470009 2.28461,2.721912 5.37442,4.08287 9.26944,4.08287 3.09259,0 5.63352,-0.854553 7.62281,-2.563663 1.98931,-1.709106 3.35171,-4.111351 4.08725,-7.206734 l -4.66398,-0.655159 c -0.68539,2.164868 -1.61315,3.741047 -2.78332,4.728531 -1.17017,0.987484 -2.58273,1.481224 -4.2377,1.481224 -2.22333,0 -4.07889,-0.883037 -5.56668,-2.649116 -1.48777,-1.766075 -2.31525,-4.310749 -2.48243,-7.63401 l 19.85947,0 c 0.0167,-0.607686 0.0251,-1.063446 0.0251,-1.367287 0,-4.994393 -1.12839,-8.86837 -3.38513,-11.621933 -2.25678,-2.753561 -5.16547,-4.130343 -8.72614,-4.130343 z"
       id="path4409"
       inkscape:connector-curvature="0"
       style="fill-rule:evenodd;stroke:#000000;stroke-width:2;stroke-linecap:butt;stroke-linejoin:round" />
    <path
       d="m 498.91272,17.257217 0,41.759193 4.51352,0 0,-41.759193 z"
       id="path4411"
       inkscape:connector-curvature="0"
       style="fill-rule:evenodd;stroke:#000000;stroke-width:2;stroke-linecap:butt;stroke-linejoin:round" />
    <path
       d="m 519.1734,28.081564 c -1.38751,0 -2.6886,0.205729 -3.90338,0.617178 -1.20917,0.405123 -2.1648,0.902029 -2.86688,1.490723 -0.93616,0.759603 -1.67728,1.715437 -2.22333,2.8675 -0.54053,1.145737 -0.81079,2.392754 -0.81079,3.741047 0,1.481228 0.32876,2.835854 0.9863,4.063877 0.66308,1.221695 1.63266,2.180695 2.90872,2.876999 1.28161,0.689972 3.57739,1.509712 6.88727,2.459217 2.45739,0.702633 3.9953,1.28183 4.61383,1.737591 0.88598,0.664654 1.32898,1.576179 1.32898,2.734573 0,1.291325 -0.50147,2.418068 -1.50452,3.380234 -1.00299,0.955833 -2.54089,1.43375 -4.61377,1.43375 -2.05621,0 -3.6582,-0.541214 -4.80609,-1.623649 -1.14234,-1.082436 -1.83887,-2.639622 -2.0896,-4.671562 l -4.46335,0.797584 c 0.5015,3.209324 1.65771,5.630558 3.46872,7.263706 1.81653,1.633148 4.45502,2.449722 7.91534,2.449722 2.0896,0 3.96192,-0.411453 5.61682,-1.234356 1.65497,-0.829235 2.91987,-1.997127 3.79474,-3.503669 0.88044,-1.512879 1.32062,-3.123871 1.32062,-4.832978 0,-1.747089 -0.35943,-3.209324 -1.07825,-4.386711 -0.71881,-1.177383 -1.71069,-2.073082 -2.97558,-2.687095 -1.25934,-0.620342 -3.48541,-1.414765 -6.67835,-2.383255 -2.2066,-0.683643 -3.53558,-1.120415 -3.98693,-1.310314 -0.78565,-0.360813 -1.36237,-0.816574 -1.73017,-1.367287 -0.3678,-0.531723 -0.55163,-1.12991 -0.55163,-1.794563 0,-1.044453 0.44299,-1.955979 1.32898,-2.734574 0.88598,-0.778591 2.36541,-1.167888 4.43829,-1.167888 1.75525,0 3.11206,0.436771 4.07049,1.310314 0.96399,0.873546 1.54633,2.088909 1.74689,3.646099 l 4.41327,-0.683643 c -0.28424,-1.955979 -0.80243,-3.516331 -1.55469,-4.681057 -0.75226,-1.171055 -1.91961,-2.098404 -3.50213,-2.782048 -1.57697,-0.683643 -3.41022,-1.025465 -5.49982,-1.025465 z"
       id="path4413"
       inkscape:connector-curvature="0"
       style="fill-rule:evenodd;stroke:#000000;stroke-width:2;stroke-linecap:butt;stroke-linejoin:round" />
    <path
       d="m 124.75568,22.185144 c 2.892,0 4.98994,0.284851 6.29385,0.854553 1.80541,0.797585 3.33777,2.370596 4.59711,4.719036 1.26489,2.342112 1.89734,5.697024 1.89734,10.064745 0,3.152352 -0.32318,5.836281 -0.96956,8.051792 -0.64081,2.209179 -1.53795,3.96893 -2.69141,5.279244 -0.8191,0.930515 -1.91963,1.652137 -3.30154,2.164871 -1.37634,0.512733 -3.27648,0.769096 -5.70041,0.769096 l -7.84851,0 0,-31.903337 z m -12.5877,-4.927927 0,41.759193 13.26473,0 c 2.22333,0 4.19032,-0.237377 5.901,-0.712128 1.71627,-0.474754 3.17897,-1.171058 4.38816,-2.088909 1.21473,-0.924186 2.33198,-2.187027 3.3517,-3.788524 1.01971,-1.607827 1.85556,-3.636601 2.5075,-6.086319 0.65197,-2.449723 0.97794,-5.260254 0.97794,-8.431599 0,-3.722054 -0.48201,-7.029494 -1.446,-9.922318 -0.95844,-2.899151 -2.40721,-5.279243 -4.34636,-7.14027 -1.48778,-1.443247 -3.28484,-2.440226 -5.39114,-2.990938 -1.5045,-0.398792 -3.68604,-0.598189 -6.5446,-0.598189 z"
       id="path4415"
       inkscape:connector-curvature="0"
       style="fill:#990000;fill-rule:evenodd" />
    <path
       d="m 165.67824,43.83384 0,1.880016 c 0,2.259823 -0.24239,3.96893 -0.72717,5.127323 -0.63524,1.500218 -1.62989,2.68393 -2.98394,3.551148 -1.35406,0.860882 -2.90036,1.291324 -4.6389,1.291324 -1.75525,0 -3.08979,-0.455761 -4.00364,-1.367286 -0.90828,-0.911526 -1.36243,-2.05093 -1.36243,-3.418217 0,-0.892532 0.20897,-1.702778 0.62688,-2.430729 0.41792,-0.734283 1.01136,-1.291325 1.78033,-1.671127 0.76898,-0.379803 2.08124,-0.721623 3.9368,-1.025463 3.27647,-0.531723 5.73384,-1.177388 7.37207,-1.936989 z m -5.74219,-15.752275 c -2.29019,0 -4.30456,0.357649 -6.0431,1.072941 -1.73854,0.708963 -3.06752,1.724933 -3.98694,3.047907 -0.91942,1.316646 -1.57973,3.047909 -1.98093,5.19379 l 4.41321,0.683643 c 0.48479,-2.145881 1.23148,-3.639766 2.24005,-4.481662 1.01415,-0.848221 2.58273,-1.272335 4.70575,-1.272335 2.27348,0 3.98695,0.579197 5.1404,1.737594 0.85255,0.854553 1.27884,2.326283 1.27884,4.415192 0,0.189903 -0.008,0.636169 -0.0251,1.338802 -1.72182,0.683644 -4.40485,1.272335 -8.0491,1.766079 -1.78868,0.246868 -3.12603,0.503235 -4.01201,0.769097 -1.20362,0.379802 -2.28742,0.94001 -3.25141,1.680622 -0.95843,0.740616 -1.73576,1.724933 -2.33198,2.952957 -0.59067,1.221695 -0.88599,2.573158 -0.88599,4.054386 0,2.52568 0.78568,4.601925 2.35706,6.228744 1.57136,1.620488 3.81978,2.430733 6.74519,2.430733 1.77199,0 3.42972,-0.332329 4.97324,-0.996979 1.54909,-0.664653 3.15947,-1.804058 4.83113,-3.418216 0.13374,1.424255 0.43465,2.668106 0.90271,3.731552 l 4.71411,0 c -0.56836,-1.158398 -0.95006,-2.367432 -1.1451,-3.627106 -0.18945,-1.266006 -0.28418,-4.282265 -0.28418,-9.048775 l 0,-6.83643 c 0,-2.278812 -0.0752,-3.854988 -0.22567,-4.728531 -0.26747,-1.405265 -0.73554,-2.566825 -1.40421,-3.48468 -0.66867,-0.924185 -1.71347,-1.690119 -3.13438,-2.2978 -1.42093,-0.607683 -3.26813,-0.911525 -5.5416,-0.911525 z"
       id="path4417"
       inkscape:connector-curvature="0"
       style="fill:#990000;fill-rule:evenodd" />
    <path
       d="m 182.55379,18.197227 -4.48845,3.076393 0,7.491587 -3.30991,0 0,3.987917 3.30991,0 0,17.404411 c 0,3.076393 0.18388,5.095672 0.55167,6.057838 0.36776,0.95583 1.00299,1.728096 1.9057,2.316788 0.90271,0.588695 2.17317,0.883041 3.81141,0.883041 1.00301,0 2.13974,-0.15192 3.41022,-0.455764 l -0.65196,-4.529133 c -0.81912,0.13293 -1.47943,0.199394 -1.98093,0.199394 -0.66867,0 -1.18411,-0.123436 -1.54629,-0.370304 -0.35663,-0.246872 -0.61574,-0.579201 -0.77733,-0.996983 -0.15604,-0.417782 -0.23404,-1.357788 -0.23404,-2.820026 l 0,-17.689262 4.53859,0 0,-3.987917 -4.53859,0 0,-10.56798 z"
       id="path4419"
       inkscape:connector-curvature="0"
       style="fill:#990000;fill-rule:evenodd" />
    <path
       d="m 208.50652,43.83384 0,1.880016 c 0,2.259823 -0.24239,3.96893 -0.72717,5.127323 -0.63524,1.500218 -1.62989,2.68393 -2.98394,3.551148 -1.35406,0.860882 -2.90036,1.291324 -4.6389,1.291324 -1.75526,0 -3.08981,-0.455761 -4.00366,-1.367286 -0.90828,-0.911526 -1.36241,-2.05093 -1.36241,-3.418217 0,-0.892532 0.20895,-1.702778 0.62688,-2.430729 0.41792,-0.734283 1.01136,-1.291325 1.78033,-1.671127 0.76897,-0.379803 2.08124,-0.721623 3.9368,-1.025463 3.27647,-0.531723 5.73383,-1.177388 7.37207,-1.936989 z m -5.7422,-15.752275 c -2.29019,0 -4.30455,0.357649 -6.04309,1.072941 -1.73854,0.708963 -3.06752,1.724933 -3.98694,3.047907 -0.91942,1.316646 -1.57974,3.047909 -1.98094,5.19379 l 4.41322,0.683643 c 0.48479,-2.145881 1.23146,-3.639766 2.24004,-4.481662 1.01414,-0.848221 2.58274,-1.272335 4.70576,-1.272335 2.27348,0 3.98694,0.579197 5.1404,1.737594 0.85255,0.854553 1.27882,2.326283 1.27882,4.415192 0,0.189903 -0.008,0.636169 -0.0251,1.338802 -1.72182,0.683644 -4.40486,1.272335 -8.0491,1.766079 -1.7887,0.246868 -3.12604,0.503235 -4.01203,0.769097 -1.2036,0.379802 -2.2874,0.94001 -3.2514,1.680622 -0.95842,0.740616 -1.73575,1.724933 -2.33199,2.952957 -0.59065,1.221695 -0.88598,2.573158 -0.88598,4.054386 0,2.52568 0.78569,4.601925 2.35707,6.228744 1.57136,1.620488 3.81976,2.430733 6.74519,2.430733 1.77197,0 3.42972,-0.332329 4.97324,-0.996979 1.54907,-0.664653 3.15945,-1.804058 4.83113,-3.418216 0.13373,1.424255 0.43463,2.668106 0.90271,3.731552 l 4.71411,0 c -0.56837,-1.158398 -0.95007,-2.367432 -1.1451,-3.627106 -0.18945,-1.266006 -0.28418,-4.282265 -0.28418,-9.048775 l 0,-6.83643 c 0,-2.278812 -0.0752,-3.854988 -0.22567,-4.728531 -0.26747,-1.405265 -0.73554,-2.566825 -1.40421,-3.48468 -0.66867,-0.924185 -1.71347,-1.690119 -3.13438,-2.2978 -1.42093,-0.607683 -3.26813,-0.911525 -5.54161,-0.911525 z"
       id="path4421"
       inkscape:connector-curvature="0"
       style="fill:#990000;fill-rule:evenodd" />
    <path
       d="m 124.75568,22.185144 c 2.892,0 4.98994,0.284851 6.29385,0.854553 1.80541,0.797585 3.33777,2.370596 4.59711,4.719036 1.26489,2.342112 1.89734,5.697024 1.89734,10.064745 0,3.152352 -0.32318,5.836281 -0.96956,8.051792 -0.64081,2.209179 -1.53795,3.96893 -2.69141,5.279244 -0.8191,0.930515 -1.91963,1.652137 -3.30154,2.164871 -1.37634,0.512733 -3.27648,0.769096 -5.70041,0.769096 l -7.84851,0 0,-31.903337 z m -12.5877,-4.927927 0,41.759193 13.26473,0 c 2.22333,0 4.19032,-0.237377 5.901,-0.712128 1.71627,-0.474754 3.17897,-1.171058 4.38816,-2.088909 1.21473,-0.924186 2.33198,-2.187027 3.3517,-3.788524 1.01971,-1.607827 1.85556,-3.636601 2.5075,-6.086319 0.65197,-2.449723 0.97794,-5.260254 0.97794,-8.431599 0,-3.722054 -0.48201,-7.029494 -1.446,-9.922318 -0.95844,-2.899151 -2.40721,-5.279243 -4.34636,-7.14027 -1.48778,-1.443247 -3.28484,-2.440226 -5.39114,-2.990938 -1.5045,-0.398792 -3.68604,-0.598189 -6.5446,-0.598189 z"
       id="path4423"
       inkscape:connector-curvature="0"
       style="fill-rule:evenodd;stroke:#000000;stroke-width:2;stroke-linecap:butt;stroke-linejoin:round" />
    <path
       d="m 165.67824,43.83384 0,1.880016 c 0,2.259823 -0.24239,3.96893 -0.72717,5.127323 -0.63524,1.500218 -1.62989,2.68393 -2.98394,3.551148 -1.35406,0.860882 -2.90036,1.291324 -4.6389,1.291324 -1.75525,0 -3.08979,-0.455761 -4.00364,-1.367286 -0.90828,-0.911526 -1.36243,-2.05093 -1.36243,-3.418217 0,-0.892532 0.20897,-1.702778 0.62688,-2.430729 0.41792,-0.734283 1.01136,-1.291325 1.78033,-1.671127 0.76898,-0.379803 2.08124,-0.721623 3.9368,-1.025463 3.27647,-0.531723 5.73384,-1.177388 7.37207,-1.936989 z m -5.74219,-15.752275 c -2.29019,0 -4.30456,0.357649 -6.0431,1.072941 -1.73854,0.708963 -3.06752,1.724933 -3.98694,3.047907 -0.91942,1.316646 -1.57973,3.047909 -1.98093,5.19379 l 4.41321,0.683643 c 0.48479,-2.145881 1.23148,-3.639766 2.24005,-4.481662 1.01415,-0.848221 2.58273,-1.272335 4.70575,-1.272335 2.27348,0 3.98695,0.579197 5.1404,1.737594 0.85255,0.854553 1.27884,2.326283 1.27884,4.415192 0,0.189903 -0.008,0.636169 -0.0251,1.338802 -1.72182,0.683644 -4.40485,1.272335 -8.0491,1.766079 -1.78868,0.246868 -3.12603,0.503235 -4.01201,0.769097 -1.20362,0.379802 -2.28742,0.94001 -3.25141,1.680622 -0.95843,0.740616 -1.73576,1.724933 -2.33198,2.952957 -0.59067,1.221695 -0.88599,2.573158 -0.88599,4.054386 0,2.52568 0.78568,4.601925 2.35706,6.228744 1.57136,1.620488 3.81978,2.430733 6.74519,2.430733 1.77199,0 3.42972,-0.332329 4.97324,-0.996979 1.54909,-0.664653 3.15947,-1.804058 4.83113,-3.418216 0.13374,1.424255 0.43465,2.668106 0.90271,3.731552 l 4.71411,0 c -0.56836,-1.158398 -0.95006,-2.367432 -1.1451,-3.627106 -0.18945,-1.266006 -0.28418,-4.282265 -0.28418,-9.048775 l 0,-6.83643 c 0,-2.278812 -0.0752,-3.854988 -0.22567,-4.728531 -0.26747,-1.405265 -0.73554,-2.566825 -1.40421,-3.48468 -0.66867,-0.924185 -1.71347,-1.690119 -3.13438,-2.2978 -1.42093,-0.607683 -3.26813,-0.911525 -5.5416,-0.911525 z"
       id="path4425"
       inkscape:connector-curvature="0"
       style="fill-rule:evenodd;stroke:#000000;stroke-width:2;stroke-linecap:butt;stroke-linejoin:round" />
    <path
       d="m 182.55379,18.197227 -4.48845,3.076393 0,7.491587 -3.30991,0 0,3.987917 3.30991,0 0,17.404411 c 0,3.076393 0.18388,5.095672 0.55167,6.057838 0.36776,0.95583 1.00299,1.728096 1.9057,2.316788 0.90271,0.588695 2.17317,0.883041 3.81141,0.883041 1.00301,0 2.13974,-0.15192 3.41022,-0.455764 l -0.65196,-4.529133 c -0.81912,0.13293 -1.47943,0.199394 -1.98093,0.199394 -0.66867,0 -1.18411,-0.123436 -1.54629,-0.370304 -0.35663,-0.246872 -0.61574,-0.579201 -0.77733,-0.996983 -0.15604,-0.417782 -0.23404,-1.357788 -0.23404,-2.820026 l 0,-17.689262 4.53859,0 0,-3.987917 -4.53859,0 0,-10.56798 z"
       id="path4427"
       inkscape:connector-curvature="0"
       style="fill-rule:evenodd;stroke:#000000;stroke-width:2;stroke-linecap:butt;stroke-linejoin:round" />
    <path
       d="m 208.50652,43.83384 0,1.880016 c 0,2.259823 -0.24239,3.96893 -0.72717,5.127323 -0.63524,1.500218 -1.62989,2.68393 -2.98394,3.551148 -1.35406,0.860882 -2.90036,1.291324 -4.6389,1.291324 -1.75526,0 -3.08981,-0.455761 -4.00366,-1.367286 -0.90828,-0.911526 -1.36241,-2.05093 -1.36241,-3.418217 0,-0.892532 0.20895,-1.702778 0.62688,-2.430729 0.41792,-0.734283 1.01136,-1.291325 1.78033,-1.671127 0.76897,-0.379803 2.08124,-0.721623 3.9368,-1.025463 3.27647,-0.531723 5.73383,-1.177388 7.37207,-1.936989 z m -5.7422,-15.752275 c -2.29019,0 -4.30455,0.357649 -6.04309,1.072941 -1.73854,0.708963 -3.06752,1.724933 -3.98694,3.047907 -0.91942,1.316646 -1.57974,3.047909 -1.98094,5.19379 l 4.41322,0.683643 c 0.48479,-2.145881 1.23146,-3.639766 2.24004,-4.481662 1.01414,-0.848221 2.58274,-1.272335 4.70576,-1.272335 2.27348,0 3.98694,0.579197 5.1404,1.737594 0.85255,0.854553 1.27882,2.326283 1.27882,4.415192 0,0.189903 -0.008,0.636169 -0.0251,1.338802 -1.72182,0.683644 -4.40486,1.272335 -8.0491,1.766079 -1.7887,0.246868 -3.12604,0.503235 -4.01203,0.769097 -1.2036,0.379802 -2.2874,0.94001 -3.2514,1.680622 -0.95842,0.740616 -1.73575,1.724933 -2.33199,2.952957 -0.59065,1.221695 -0.88598,2.573158 -0.88598,4.054386 0,2.52568 0.78569,4.601925 2.35707,6.228744 1.57136,1.620488 3.81976,2.430733 6.74519,2.430733 1.77197,0 3.42972,-0.332329 4.97324,-0.996979 1.54907,-0.664653 3.15945,-1.804058 4.83113,-3.418216 0.13373,1.424255 0.43463,2.668106 0.90271,3.731552 l 4.71411,0 c -0.56837,-1.158398 -0.95007,-2.367432 -1.1451,-3.627106 -0.18945,-1.266006 -0.28418,-4.282265 -0.28418,-9.048775 l 0,-6.83643 c 0,-2.278812 -0.0752,-3.854988 -0.22567,-4.728531 -0.26747,-1.405265 -0.73554,-2.566825 -1.40421,-3.48468 -0.66867,-0.924185 -1.71347,-1.690119 -3.13438,-2.2978 -1.42093,-0.607683 -3.26813,-0.911525 -5.54161,-0.911525 z"
       id="path4429"
       inkscape:connector-curvature="0"
       style="fill-rule:evenodd;stroke:#000000;stroke-width:2;stroke-linecap:butt;stroke-linejoin:round" />
  </g>
</svg>
